STARTFONT 2.3
FONT -FontForge-Shadows Into Light-Book-R-Normal--18-180-72-72-P-75-ISO10646-1
SIZE 18 72 72  4
FONTBOUNDINGBOX 27 30 -4 -8
COMMENT "Generated by fontforge, http://fontforge.sourceforge.net"
COMMENT "Copyright (c) 2010, Kimberly Geswein (kimberlygeswein.com)"
STARTPROPERTIES 40
FOUNDRY "FontForge"
FAMILY_NAME "Shadows Into Light"
WEIGHT_NAME "Book"
SLANT "R"
SETWIDTH_NAME "Normal"
ADD_STYLE_NAME ""
PIXEL_SIZE 18
POINT_SIZE 180
RESOLUTION_X 72
RESOLUTION_Y 72
SPACING "P"
AVERAGE_WIDTH 75
CHARSET_REGISTRY "ISO10646"
CHARSET_ENCODING "1"
FONTNAME_REGISTRY ""
CHARSET_COLLECTIONS "ISO8859-2 ISO8859-9 ISO8859-4 ISO10646-1"
BITS_PER_PIXEL 4
FONT_NAME "ShadowsIntoLight"
FACE_NAME "Shadows Into Light"
COPYRIGHT "Copyright (c) 2010, Kimberly Geswein (kimberlygeswein.com)"
FONT_VERSION "001.000"
FONT_ASCENT 14
FONT_DESCENT 4
UNDERLINE_POSITION 0
UNDERLINE_THICKNESS 0
X_HEIGHT 10
CAP_HEIGHT 12
RAW_ASCENT 799
RAW_DESCENT 200
NORM_SPACE 8
RELATIVE_WEIGHT 40
RELATIVE_SETWIDTH 50
SUPERSCRIPT_X 0
SUPERSCRIPT_Y 8
SUPERSCRIPT_SIZE 11
SUBSCRIPT_X 0
SUBSCRIPT_Y 2
SUBSCRIPT_SIZE 11
AVG_LOWERCASE_WIDTH 68
AVG_UPPERCASE_WIDTH 88
ENDPROPERTIES
CHARS 352
STARTCHAR space
ENCODING 32
SWIDTH 450 0
DWIDTH 8 0
BBX 1 1 0 0
BITMAP
00
ENDCHAR
STARTCHAR exclam
ENCODING 33
SWIDTH 137 0
DWIDTH 2 0
BBX 3 16 0 0
BITMAP
2000
7300
8300
9300
A300
A300
A300
B400
B600
8500
0000
0000
0000
0000
0100
0810
ENDCHAR
STARTCHAR quotedbl
ENCODING 34
SWIDTH 212 0
DWIDTH 4 0
BBX 4 6 0 9
BITMAP
1100
7672
6783
4883
3883
1821
ENDCHAR
STARTCHAR numbersign
ENCODING 35
SWIDTH 450 0
DWIDTH 8 0
BBX 8 11 1 1
BITMAP
00031000
04075000
0D178000
0B39E700
8EB9A000
3C34A391
0B34F810
0BAAE000
AF80C000
35407000
00100000
ENDCHAR
STARTCHAR dollar
ENCODING 36
SWIDTH 445 0
DWIDTH 8 0
BBX 8 16 0 -2
BITMAP
00065000
00095000
00098600
004EA400
07BB5000
5B095000
D4096000
AB8CD830
01378175
00039074
0002C960
0018F500
0046F000
0000C200
00008500
00004500
ENDCHAR
STARTCHAR percent
ENCODING 37
SWIDTH 450 0
DWIDTH 8 0
BBX 8 15 0 0
BITMAP
00000100
00000D10
04303C00
7A928700
A452C200
A691D000
39159000
00085000
000B11D4
000C059A
00290589
004604E3
00630000
00800000
00600000
ENDCHAR
STARTCHAR ampersand
ENCODING 38
SWIDTH 356 0
DWIDTH 6 0
BBX 6 8 0 2
BITMAP
000A00
000B00
000B05
199CC7
816F70
90BE20
8B4C20
000C10
ENDCHAR
STARTCHAR quotesingle
ENCODING 39
SWIDTH 155 0
DWIDTH 3 0
BBX 2 6 0 6
BITMAP
11
6A
4C
3C
1B
07
ENDCHAR
STARTCHAR parenleft
ENCODING 40
SWIDTH 291 0
DWIDTH 5 0
BBX 5 15 0 0
BITMAP
000190
000A50
006900
01D100
077000
0C1000
3A0000
760000
A40000
B30000
940000
670000
1C0000
088000
009920
ENDCHAR
STARTCHAR parenright
ENCODING 41
SWIDTH 241 0
DWIDTH 4 0
BBX 4 14 0 0
BITMAP
4100
3C10
0590
00B3
0057
001B
000B
000A
000A
001A
0068
00C3
02B0
0410
ENDCHAR
STARTCHAR asterisk
ENCODING 42
SWIDTH 481 0
DWIDTH 9 0
BBX 9 9 0 1
BITMAP
000A010000
000C096000
440C690000
1ADEE9CB20
25BFF61000
68AE9C8100
03E7706400
0D62900000
0200800000
ENDCHAR
STARTCHAR plus
ENCODING 43
SWIDTH 466 0
DWIDTH 8 0
BBX 9 8 0 2
BITMAP
000A000000
000C000000
000C000000
000C48CB20
257F941000
674E200000
000C200000
0008100000
ENDCHAR
STARTCHAR comma
ENCODING 44
SWIDTH 112 0
DWIDTH 2 0
BBX 2 4 0 -2
BITMAP
6B
5C
59
55
ENDCHAR
STARTCHAR hyphen
ENCODING 45
SWIDTH 399 0
DWIDTH 7 0
BBX 7 3 0 3
BITMAP
00005A90
148EB720
79510000
ENDCHAR
STARTCHAR period
ENCODING 46
SWIDTH 128 0
DWIDTH 2 0
BBX 2 2 0 0
BITMAP
01
6A
ENDCHAR
STARTCHAR slash
ENCODING 47
SWIDTH 306 0
DWIDTH 6 0
BBX 5 15 0 -2
BITMAP
000070
0002B0
000760
000B20
001C00
005700
00A300
00C000
048000
094000
0C0000
390000
750000
B10000
400000
ENDCHAR
STARTCHAR zero
ENCODING 48
SWIDTH 308 0
DWIDTH 6 0
BBX 5 10 0 0
BITMAP
008700
084760
1900A0
460090
6600A0
5600A0
3800A0
1A01A0
091860
03DA00
ENDCHAR
STARTCHAR one
ENCODING 49
SWIDTH 112 0
DWIDTH 2 0
BBX 2 12 0 0
BITMAP
10
64
65
65
65
76
76
76
67
57
47
37
ENDCHAR
STARTCHAR two
ENCODING 50
SWIDTH 512 0
DWIDTH 9 0
BBX 9 11 0 0
BITMAP
0003300000
01ACE20000
1C70770000
7600660000
0000850000
0000C10000
0002C00000
0009600000
001D104870
009BAC9400
00B7200000
ENDCHAR
STARTCHAR three
ENCODING 51
SWIDTH 461 0
DWIDTH 8 0
BBX 8 13 0 0
BITMAP
00015200
05BCCA00
8C204800
2100B200
000A6000
008E9A60
06F9216A
0320000D
0000003B
000001C3
00002D60
0005E500
000C3000
ENDCHAR
STARTCHAR four
ENCODING 52
SWIDTH 503 0
DWIDTH 9 0
BBX 9 14 0 0
BITMAP
0000095000
00003F6000
0000BF6000
0004D96000
000C486000
0079086000
02D1086220
0C627DEB60
AEA8496000
2000086000
0000086000
0000086000
0000086000
0000084000
ENDCHAR
STARTCHAR five
ENCODING 53
SWIDTH 478 0
DWIDTH 9 0
BBX 9 13 0 0
BITMAP
0000002510
4D25998710
9FC5100000
3E10000000
3B00000000
4B05CC1000
4B79296000
4E60076000
16000B3000
00004C0000
0002D40000
000B700000
0019000000
ENDCHAR
STARTCHAR six
ENCODING 54
SWIDTH 375 0
DWIDTH 7 0
BBX 7 15 0 0
BITMAP
00700000
02C00000
05900000
08600000
0A200000
0C000000
1B000000
39000000
6602BE40
851D5630
85770900
86B02900
5B70A200
1F779000
06EA0000
ENDCHAR
STARTCHAR seven
ENCODING 55
SWIDTH 458 0
DWIDTH 8 0
BBX 8 14 0 0
BITMAP
00000132
158BEFF9
676421E3
000005C0
00000860
00000C20
00000C00
00002900
00004700
00006600
00008600
00008700
00007900
00003B00
ENDCHAR
STARTCHAR eight
ENCODING 56
SWIDTH 333 0
DWIDTH 6 0
BBX 6 13 0 0
BITMAP
001750
03ACF2
1C1A95
770064
A400A1
7602A0
1C3A40
02DD00
008D10
009180
055073
073083
04DC80
ENDCHAR
STARTCHAR nine
ENCODING 57
SWIDTH 475 0
DWIDTH 9 0
BBX 8 13 0 0
BITMAP
00001200
0019DBB0
00B807F4
08702EA6
2C01D766
851C9057
B7DA0048
5A500039
0000002A
0000002B
0000001D
0000000D
0000000B
ENDCHAR
STARTCHAR colon
ENCODING 58
SWIDTH 120 0
DWIDTH 2 0
BBX 2 6 0 2
BITMAP
53
32
00
00
01
47
ENDCHAR
STARTCHAR semicolon
ENCODING 59
SWIDTH 121 0
DWIDTH 2 0
BBX 2 8 0 -2
BITMAP
12
35
00
00
6B
5C
59
55
ENDCHAR
STARTCHAR less
ENCODING 60
SWIDTH 409 0
DWIDTH 7 0
BBX 8 10 0 2
BITMAP
00000031
000005D1
00007E30
000AC200
01C90000
1D600000
0BB20000
007E8100
0002AE70
00000560
ENDCHAR
STARTCHAR equal
ENCODING 61
SWIDTH 433 0
DWIDTH 8 0
BBX 8 6 0 1
BITMAP
00001330
2ACED930
05310000
00027BD4
4AB95200
24000000
ENDCHAR
STARTCHAR greater
ENCODING 62
SWIDTH 450 0
DWIDTH 8 0
BBX 7 10 0 2
BITMAP
1B300000
07E91000
0018E700
000029C0
000001D0
00001C40
0003D600
006E5000
08D30000
1A100000
ENDCHAR
STARTCHAR question
ENCODING 63
SWIDTH 445 0
DWIDTH 8 0
BBX 8 17 0 0
BITMAP
00025630
18DB77C7
8A300049
00000085
000003C0
00003D30
0004E400
002E5000
00970000
00AA2300
0029A500
00000000
00000000
00000000
00000000
00010000
000B3000
ENDCHAR
STARTCHAR at
ENCODING 64
SWIDTH 945 0
DWIDTH 17 0
BBX 17 17 0 0
BITMAP
000000000231000000
00000017DCBC800000
000004D710007A0000
00006C200000095000
0005B100440002C000
002C102BAC2000E000
00B302C36B1000C100
05900B21EA0000C000
0C30860A5B0001B000
2C01D0680B30095000
690596A003CBB60000
8803C7000000000000
7A0000000000000540
5D0000000000005E40
0D60000000004B9100
03D93000037C920000
0017CDDDDA51000000
ENDCHAR
STARTCHAR A
ENCODING 65
SWIDTH 390 0
DWIDTH 7 0
BBX 9 15 0 -1
BITMAP
0150000000
04F2000000
06F7000000
088C000000
0959300000
0B44800000
0D30D00000
0E10B66950
1F00AD7330
2F7BCC0000
3E600D1000
5900094000
6700058000
430001A000
0000001000
ENDCHAR
STARTCHAR B
ENCODING 66
SWIDTH 537 0
DWIDTH 10 0
BBX 10 13 0 0
BITMAP
1017DEC000
89C711D000
4F30087000
2D004A0000
0D03B7AB91
0C5EC500C3
0AF90001A0
08C0000B20
067000A600
04900A9000
01B0AA0000
00D3900000
0080000000
ENDCHAR
STARTCHAR C
ENCODING 67
SWIDTH 487 0
DWIDTH 9 0
BBX 9 14 0 0
BITMAP
0000100000
0008DD2000
006A045000
00D1000000
0590000000
0A40000000
0D00000000
2B00000000
5900000200
7600000D30
8500007B00
760004D100
3C106C2000
07ED810000
ENDCHAR
STARTCHAR D
ENCODING 68
SWIDTH 554 0
DWIDTH 10 0
BBX 10 14 0 0
BITMAP
0020000000
02B6541000
2CE879BB40
58C00002C4
03C0000058
02D0000066
01D00000B1
00D0000590
00C0002C10
00C001C500
00B00B9000
00A1AB0000
0058B10000
001B100000
ENDCHAR
STARTCHAR E
ENCODING 69
SWIDTH 474 0
DWIDTH 9 0
BBX 9 13 0 0
BITMAP
38017B8000
3E8E920000
1F92000000
0E00000000
0D00014000
0C106C3000
0B6C710000
0BB1000000
0B60000610
0B6003C700
0B607C3000
0BBC700000
0892000000
ENDCHAR
STARTCHAR F
ENCODING 70
SWIDTH 428 0
DWIDTH 8 0
BBX 8 13 0 0
BITMAP
00000164
68018D71
7BAD6000
7D500000
7A000000
7B000001
6B0005B2
6C03B810
5D9B2000
4F500000
2D000000
1D000000
0A000000
ENDCHAR
STARTCHAR G
ENCODING 71
SWIDTH 591 0
DWIDTH 11 0
BBX 11 14 0 -2
BITMAP
000006A50000
0000AA500000
000A60000000
005A00000000
01D100001310
0670029DFC20
0C100123E400
3A000008F100
7600004FE000
950005E5D000
7D66AD31E000
06BB7101E000
00000001F100
00000000B100
ENDCHAR
STARTCHAR H
ENCODING 72
SWIDTH 424 0
DWIDTH 8 0
BBX 7 12 0 0
BITMAP
65000C10
77000B30
68000940
58000850
59000A70
4A005F80
4C3AA5A0
3FC302B0
3D1001D0
2A0000D0
2B0000D0
1B0000A0
ENDCHAR
STARTCHAR I
ENCODING 73
SWIDTH 153 0
DWIDTH 3 0
BBX 2 14 1 0
BITMAP
50
D0
D0
C1
C2
C2
B3
B3
B3
A3
A3
A4
94
73
ENDCHAR
STARTCHAR J
ENCODING 74
SWIDTH 371 0
DWIDTH 7 0
BBX 7 15 0 -2
BITMAP
00008000
0000B200
0000A400
00009600
00007800
00005B00
00003C00
00001E00
00000E00
00000D10
40000C10
82000C10
2A000C00
04B8B500
00021000
ENDCHAR
STARTCHAR K
ENCODING 75
SWIDTH 524 0
DWIDTH 9 0
BBX 10 12 0 0
BITMAP
7800004000
3A0006A000
1C003D1000
0D00C50000
0D07900000
0C3C100000
0BD5000000
0AE0000000
08D6544441
06C8888881
04A0000000
0190000000
ENDCHAR
STARTCHAR L
ENCODING 76
SWIDTH 537 0
DWIDTH 10 0
BBX 10 12 0 0
BITMAP
1200000000
7B00000000
6C00000000
5D00000000
5D00000000
4E00000000
4E00000000
3F00000000
3F000016D6
3F1017D710
2F59E81000
1EC7100000
ENDCHAR
STARTCHAR M
ENCODING 77
SWIDTH 682 0
DWIDTH 12 0
BBX 12 14 0 0
BITMAP
591000000820
5FB000001F40
3BB500005D50
1B3D0000A760
0B0A5001B480
0C03C0057390
0D00A50A32A0
0D103D1C00B0
0D200AB700C0
0C4003E100C0
0C60001000B2
0B70000000A5
0B7000000098
097000000077
ENDCHAR
STARTCHAR N
ENCODING 78
SWIDTH 541 0
DWIDTH 10 0
BBX 10 14 0 0
BITMAP
0000000900
0000000C40
4300000960
6E30000870
5FD1000770
3D9A000670
1D0B700680
0E01D30680
0D103D1680
0B3006A690
0950009C90
0870000CC0
06800005F1
0470000010
ENDCHAR
STARTCHAR O
ENCODING 79
SWIDTH 382 0
DWIDTH 7 0
BBX 7 13 0 0
BITMAP
00001000
004EF600
02D53D30
08700870
0E200690
3C000590
69000790
86000970
A4000C40
B3002E00
95008800
4C47D100
08EA2000
ENDCHAR
STARTCHAR P
ENCODING 80
SWIDTH 508 0
DWIDTH 9 0
BBX 9 15 0 0
BITMAP
0010355100
09CCA8BE30
3FA10006A0
4C60000590
0A40002D20
0A4004D400
0A42AC2000
0ADD600000
0AA0000000
0970000000
0970000000
0870000000
0770000000
0570000000
0370000000
ENDCHAR
STARTCHAR Q
ENCODING 81
SWIDTH 512 0
DWIDTH 9 0
BBX 9 14 0 0
BITMAP
0036574000
01ED76B400
07D1001A00
0C40000A00
1E00000820
4B00000830
6700000840
76001B0830
76000B5920
670004BC00
3A0000CA00
0D1000BB00
06A0079D40
007DD70460
ENDCHAR
STARTCHAR R
ENCODING 82
SWIDTH 503 0
DWIDTH 9 0
BBX 9 15 0 0
BITMAP
1200000000
4D049CA600
4EBA534D80
4E40000B40
4C0002B500
4B007B2000
4A6C600000
4FB2000000
4F70000000
4BCD600000
4804BD6000
480004BD60
4800000370
4800000000
3600000000
ENDCHAR
STARTCHAR S
ENCODING 83
SWIDTH 541 0
DWIDTH 10 0
BBX 10 14 0 0
BITMAP
0000001000
00018CF500
004B404000
04B1000000
1D10000000
8700000000
B300000000
8800000000
08B8643100
0002579BB1
00000001D3
0000017D60
0027BC7100
0077200000
ENDCHAR
STARTCHAR T
ENCODING 84
SWIDTH 595 0
DWIDTH 11 0
BBX 13 13 0 0
BITMAP
00000573568940
268ACEEA985200
797315C0000000
000003C0000000
000001D0000000
000000E0000000
000000D1000000
000000C3000000
000000A5000000
00000097000000
00000078000000
0000005A000000
0000002B000000
ENDCHAR
STARTCHAR U
ENCODING 85
SWIDTH 450 0
DWIDTH 8 0
BBX 8 14 0 -2
BITMAP
00000010
46000087
7A0000B8
6A0000D7
6A0001F6
5A0003F6
5A0006F5
4A000AD5
4A000D85
2B006867
0D54C148
04BA203A
0000001B
0000000A
ENDCHAR
STARTCHAR V
ENCODING 86
SWIDTH 524 0
DWIDTH 9 0
BBX 9 13 0 0
BITMAP
00000000D0
00000003B0
6200000780
7A00000A50
1E20000E20
0890003D00
02E1006A00
009800A700
003E10E300
000B72F000
0004E6C000
0000CE9000
00002C5000
ENDCHAR
STARTCHAR W
ENCODING 87
SWIDTH 878 0
DWIDTH 16 0
BBX 16 15 0 -1
BITMAP
0000000000000030
00000000000000D1
01000000200002C0
79000006E1000690
4E000009E5000950
0C40000C89000D10
079000492E002C00
03D000840C405900
00E300C006909500
00B803A001D1C100
007C08600078C000
003F2D10001EA000
000DBC0000075000
0005F60000000000
0000300000000000
ENDCHAR
STARTCHAR X
ENCODING 88
SWIDTH 461 0
DWIDTH 8 0
BBX 8 13 0 0
BITMAP
00000006
08000067
0C4001C1
05B00860
00D42C00
005BB500
000DB000
000DB000
006BD400
01D13C00
0B600A40
5C0003C0
010000B2
ENDCHAR
STARTCHAR Y
ENCODING 89
SWIDTH 483 0
DWIDTH 9 0
BBX 9 14 0 0
BITMAP
0000000730
0000000B10
4000001C00
7700005800
1D4000A300
04E201E000
006D179000
0008DD4000
0000AD0000
0000980000
0000C30000
0002D00000
0007800000
0008300000
ENDCHAR
STARTCHAR Z
ENCODING 90
SWIDTH 670 0
DWIDTH 12 0
BBX 12 13 0 0
BITMAP
144444433300
2888889AEE00
00000003E400
0000001D7000
000000BA0000
000008C10000
00004E200000
0002E4000000
000C70000000
009A00000000
06C100000000
3F7555555675
7FEDDCCCBA95
ENDCHAR
STARTCHAR bracketleft
ENCODING 91
SWIDTH 470 0
DWIDTH 8 0
BBX 8 22 0 -2
BITMAP
7CBCCB81
88000000
78000000
58000000
49000000
3A000000
1B000000
0C000000
0C000000
0C000000
0B200000
0A300000
08500000
07600000
06700000
04800000
03800000
03900000
03900000
03A00015
03E89CA7
01B84000
ENDCHAR
STARTCHAR backslash
ENCODING 92
SWIDTH 554 0
DWIDTH 10 0
BBX 10 19 0 0
BITMAP
1000000000
9700000000
2D10000000
0770000000
00C0000000
0076000000
001D000000
0008600000
0002D00000
0000A60000
00003D0000
00000B5000
000004C000
000000C500
0000006C00
0000000E40
00000007C0
00000001E4
0000000089
ENDCHAR
STARTCHAR bracketright
ENCODING 93
SWIDTH 512 0
DWIDTH 9 0
BBX 9 24 0 -2
BITMAP
0000012200
9CEEDBDF10
3320004F00
0000003D00
0000003D00
0000003D00
0000003D00
0000002D00
0000002D00
0000001E00
0000000F00
0000000E00
0000000E10
0000000D20
0000000C20
0000000B30
0000000A40
0000000A50
0000000960
0000000970
0000000990
00000008A0
0000159EB0
0002BA8510
ENDCHAR
STARTCHAR asciicircum
ENCODING 94
SWIDTH 390 0
DWIDTH 7 0
BBX 7 5 0 12
BITMAP
00380000
00CA7000
0580A500
0C101C50
66000260
ENDCHAR
STARTCHAR underscore
ENCODING 95
SWIDTH 612 0
DWIDTH 11 0
BBX 11 4 0 0
BITMAP
000000000110
00000259CF70
026ADFC96200
8EA730000000
ENDCHAR
STARTCHAR grave
ENCODING 96
SWIDTH 155 0
DWIDTH 3 0
BBX 3 4 0 10
BITMAP
2000
9600
2D10
0200
ENDCHAR
STARTCHAR a
ENCODING 97
SWIDTH 366 0
DWIDTH 7 0
BBX 7 10 0 0
BITMAP
0006A300
006EC800
02E38800
0990B800
1E22FA00
6A0A8C00
B44D0D00
D1D50C10
DCA00A20
69000610
ENDCHAR
STARTCHAR b
ENCODING 98
SWIDTH 442 0
DWIDTH 8 0
BBX 8 15 0 0
BITMAP
2F000000
2F000000
2E000000
2D000000
2D000000
3C001310
3B07FFC0
3B8B21D3
4EB00085
4E2000B4
490003E1
58002D70
5804E800
4AAE5000
4D810000
ENDCHAR
STARTCHAR c
ENCODING 99
SWIDTH 390 0
DWIDTH 7 0
BBX 7 11 0 0
BITMAP
00680000
06CB5000
0D367000
2D014000
5A000000
67000000
85000120
75000850
57000D20
1C208900
05ED8000
ENDCHAR
STARTCHAR d
ENCODING 100
SWIDTH 316 0
DWIDTH 6 0
BBX 6 18 0 -2
BITMAP
0001A0
0001E0
0000D0
0000C0
0000B0
0000A0
0024B0
06ECE0
2F40E0
7A00D0
A500E0
C103F0
C008F0
C00CB0
C495A0
6C60A0
0000A1
000040
ENDCHAR
STARTCHAR e
ENCODING 101
SWIDTH 461 0
DWIDTH 8 0
BBX 9 10 -1 0
BITMAP
0000672000
000AC8D200
004D12D500
00B76C5000
03FE810000
1DF2000280
04D0000B80
00C0008B00
00C108B100
005DC60000
ENDCHAR
STARTCHAR f
ENCODING 102
SWIDTH 345 0
DWIDTH 6 0
BBX 6 16 0 0
BITMAP
007F60
00D8D0
01F151
03E000
04D000
05C000
05B003
05A6DC
08EA71
7BA000
02B000
02D000
01F000
00F100
00E100
00C100
ENDCHAR
STARTCHAR g
ENCODING 103
SWIDTH 437 0
DWIDTH 8 0
BBX 8 18 0 -8
BITMAP
0003BC40
004D4DA0
01C22EB0
085099D0
1C01D4E0
680873F0
942E12F1
A7C602F2
3F9001F3
000001F4
000001F3
000001F1
000002D0
000005A0
00000B40
00006C00
0149E300
03882000
ENDCHAR
STARTCHAR h
ENCODING 104
SWIDTH 466 0
DWIDTH 8 0
BBX 8 15 0 -1
BITMAP
11000000
68000000
68000000
68000000
69000000
69004BC4
6906F97C
6A1E903D
6A6D103D
6AC6002D
6DD0002E
6F60001E
6E00001E
4500000E
00000001
ENDCHAR
STARTCHAR i
ENCODING 105
SWIDTH 132 0
DWIDTH 2 0
BBX 2 15 0 -1
BITMAP
20
63
00
12
59
69
69
69
69
69
59
59
49
49
01
ENDCHAR
STARTCHAR j
ENCODING 106
SWIDTH 112 0
DWIDTH 2 0
BBX 6 21 -4 -6
BITMAP
000012
000033
000000
000000
000000
000011
000076
000076
000086
000077
000068
000059
00004A
00003B
00002C
00001D
00000D
00001D
15004A
0B70A6
007CC1
ENDCHAR
STARTCHAR k
ENCODING 107
SWIDTH 428 0
DWIDTH 8 0
BBX 8 15 0 -1
BITMAP
09000000
1F000000
2F000000
2F000062
3E0005E2
3D001D80
4C009D10
4B05F400
5B2E7000
6CD80000
6F800000
7ED61000
7828DB71
860005A1
51000000
ENDCHAR
STARTCHAR l
ENCODING 108
SWIDTH 137 0
DWIDTH 2 0
BBX 2 16 0 0
BITMAP
21
85
66
47
38
29
1A
1B
0C
0C
0C
0D
0E
1E
2E
18
ENDCHAR
STARTCHAR m
ENCODING 109
SWIDTH 579 0
DWIDTH 10 0
BBX 10 11 0 0
BITMAP
5600000000
5900000100
4A18501EA0
3A5FD08DE0
2B99E1D2E2
1BC2A7B0C3
1CD07F60B3
0FA04F20A4
0F701B0096
0E4000007C
0B10000003
ENDCHAR
STARTCHAR n
ENCODING 110
SWIDTH 483 0
DWIDTH 9 0
BBX 8 11 0 0
BITMAP
21000530
7600BEE1
6906D167
5B0D504A
4C2E003C
3E69002E
2FA4001F
1FE1000F
0FC0000E
0D90000D
0B500006
ENDCHAR
STARTCHAR o
ENCODING 111
SWIDTH 266 0
DWIDTH 5 0
BBX 5 10 0 0
BITMAP
08C300
0E7B00
390840
660660
950670
A50870
A50A50
951E10
889800
4E9000
ENDCHAR
STARTCHAR p
ENCODING 112
SWIDTH 482 0
DWIDTH 9 0
BBX 9 15 0 -5
BITMAP
2200000000
87029CB910
778B400B50
7E80002E10
6B0001C500
67002C7000
5807E60000
5CCD300000
4F91000000
4A00000000
4800000000
5800000000
5700000000
6600000000
6500000000
ENDCHAR
STARTCHAR q
ENCODING 113
SWIDTH 408 0
DWIDTH 7 0
BBX 8 14 0 -5
BITMAP
00014200
003DAC00
01C30F10
09502F30
2C006E50
7700B970
9404C490
7B8C33B0
044001D0
000000E0
000000C2
000000A4
00000086
00000068
ENDCHAR
STARTCHAR r
ENCODING 114
SWIDTH 396 0
DWIDTH 7 0
BBX 7 10 0 0
BITMAP
00001200
7507FE80
683E3000
4A880000
1CA50000
0DB30000
0CD20000
09F10000
07E00000
04C00000
ENDCHAR
STARTCHAR s
ENCODING 115
SWIDTH 366 0
DWIDTH 7 0
BBX 7 11 0 -1
BITMAP
00001000
005CE400
08900000
3D000000
87000000
8959ED10
2BA53B50
00004D10
0006E300
01AD3000
00510000
ENDCHAR
STARTCHAR t
ENCODING 116
SWIDTH 268 0
DWIDTH 5 0
BBX 6 15 -1 -1
BITMAP
008100
00D200
00D100
00D000
00E8BC
2AFC60
8BF000
00F000
00E100
00D200
00D200
00C300
00B300
00A400
003100
ENDCHAR
STARTCHAR u
ENCODING 117
SWIDTH 387 0
DWIDTH 7 0
BBX 7 10 0 -1
BITMAP
45001700
58002C00
58003C00
59003C00
5A005C00
4B00AC00
2C03FD00
0D2C9D10
07F90B40
00100220
ENDCHAR
STARTCHAR v
ENCODING 118
SWIDTH 354 0
DWIDTH 6 0
BBX 6 10 0 0
BITMAP
000028
00004D
72004D
7C004D
1D505C
06D06B
00C76A
003FB9
0008F9
0000C8
ENDCHAR
STARTCHAR w
ENCODING 119
SWIDTH 566 0
DWIDTH 10 0
BBX 10 10 0 0
BITMAP
0000200010
6600F50094
3D02ED0095
0C34B87095
0795B1D295
01E7A05A96
00AE900BC7
005F8003F7
000E700078
0007500000
ENDCHAR
STARTCHAR x
ENCODING 120
SWIDTH 454 0
DWIDTH 8 0
BBX 8 13 0 -2
BITMAP
0000A300
0000D400
3200E200
8D00E000
0B92B000
00ADA000
000DD100
000FBC10
004D07C1
0079007B
00B60002
00E20000
00300000
ENDCHAR
STARTCHAR y
ENCODING 121
SWIDTH 363 0
DWIDTH 7 0
BBX 7 17 0 -7
BITMAP
00000300
10000A20
89000B20
2E300C20
06B00D20
00C60E10
003E2F10
0008DF10
0001DF00
00004E00
00001D00
00002C00
00003A00
00005900
00006800
00007700
00006400
ENDCHAR
STARTCHAR z
ENCODING 122
SWIDTH 618 0
DWIDTH 11 0
BBX 12 10 0 -1
BITMAP
00005AE10000
159DA8E00000
39510B900000
00003E200000
0000A6000000
0002D0000000
000860000361
000D669CFEC4
002FDA852000
000100000000
ENDCHAR
STARTCHAR braceleft
ENCODING 123
SWIDTH 348 0
DWIDTH 6 0
BBX 7 18 0 -2
BITMAP
00033000
01BB7B10
07A00100
09400000
06700000
01C10000
00A70000
7E810000
1A300000
01E10000
8FB10000
C7000000
C1000000
C2000000
86000000
3E500000
06FC5000
00265000
ENDCHAR
STARTCHAR bar
ENCODING 124
SWIDTH 137 0
DWIDTH 2 0
BBX 2 16 0 0
BITMAP
21
85
66
47
38
29
1A
1B
0C
0C
0C
0D
0E
1E
2E
18
ENDCHAR
STARTCHAR braceright
ENCODING 125
SWIDTH 348 0
DWIDTH 6 0
BBX 6 17 0 -2
BITMAP
8AC500
403E30
000770
000760
000B10
006800
005C92
0003D2
000B20
003E92
0004D7
000058
000049
000067
0001D2
005D90
0AD700
ENDCHAR
STARTCHAR asciitilde
ENCODING 126
SWIDTH 458 0
DWIDTH 8 0
BBX 8 3 0 10
BITMAP
06CB1053
3D1984F3
2401CE50
ENDCHAR
STARTCHAR nonbreakingspace
ENCODING 160
SWIDTH 450 0
DWIDTH 8 0
BBX 1 1 0 0
BITMAP
00
ENDCHAR
STARTCHAR exclamdown
ENCODING 161
SWIDTH 137 0
DWIDTH 2 0
BBX 2 12 0 -3
BITMAP
06
00
00
00
22
87
85
84
74
74
64
33
ENDCHAR
STARTCHAR cent
ENCODING 162
SWIDTH 394 0
DWIDTH 7 0
BBX 7 15 0 -2
BITMAP
00250000
00390000
006C1000
06CED200
0D3A7700
2D0A0000
5A090000
77090000
85090120
75090860
57090D20
1C2A8A00
05EE8000
000B3000
00020000
ENDCHAR
STARTCHAR sterling
ENCODING 163
SWIDTH 539 0
DWIDTH 10 0
BBX 10 13 0 -1
BITMAP
000018DD30
0000C81380
0009700000
001C000000
139C992000
8CE8300000
00D1000000
00E0000000
01D0000000
02C0012000
02C2AEDE81
00EB500370
0020000000
ENDCHAR
STARTCHAR currency
ENCODING 164
SWIDTH 500 0
DWIDTH 9 0
BBX 8 11 0 1
BITMAP
00000066
00B131D5
00CDFEC0
008B1A60
00A30570
00A30580
00840780
00C83E50
08BCFE50
2E2124A0
24000010
ENDCHAR
STARTCHAR yen
ENCODING 165
SWIDTH 478 0
DWIDTH 9 0
BBX 7 15 1 0
BITMAP
00000430
4C001E70
0E508D10
08C1E500
02FBB000
00BF5000
003F1000
000D0000
479FDE70
599E6200
246E9810
998E3300
002D0000
002D0000
00290000
ENDCHAR
STARTCHAR brokenbar
ENCODING 166
SWIDTH 137 0
DWIDTH 2 0
BBX 2 16 0 0
BITMAP
21
85
66
57
39
2A
16
03
0C
0C
0C
0D
0D
0E
2E
18
ENDCHAR
STARTCHAR section
ENCODING 167
SWIDTH 366 0
DWIDTH 7 0
BBX 7 15 0 -1
BITMAP
00035100
02B9A200
1C400000
78000000
A4004200
9BADDE10
1D900F20
3D008900
8707B000
8ABFED10
2BA53B50
00004D10
0006E300
01AD3000
00510000
ENDCHAR
STARTCHAR dieresis
ENCODING 168
SWIDTH 306 0
DWIDTH 6 0
BBX 4 2 1 12
BITMAP
4224
9356
ENDCHAR
STARTCHAR copyright
ENCODING 169
SWIDTH 485 0
DWIDTH 9 0
BBX 9 13 0 0
BITMAP
0000110000
0008EEA100
009B209A00
03D2511E20
0B4CAA0C50
1C4B050A70
5877000A60
8586007E40
A46805FE00
B31CCCC700
950016B000
4D44AC2000
08FD810000
ENDCHAR
STARTCHAR ordfeminine
ENCODING 170
SWIDTH 227 0
DWIDTH 4 0
BBX 4 5 0 2
BITMAP
0292
1A75
73A6
8738
9506
ENDCHAR
STARTCHAR guillemotleft
ENCODING 171
SWIDTH 652 0
DWIDTH 12 0
BBX 11 10 0 2
BITMAP
000000310340
000005D14E40
00007E36E500
000AC28D3000
01C91B910000
1D60A9000000
0BB23E810000
007E82AD5000
0002AE74DD10
000005600500
ENDCHAR
STARTCHAR logicalnot
ENCODING 172
SWIDTH 539 0
DWIDTH 10 0
BBX 8 6 1 2
BITMAP
00000122
8BCDDDCB
0000000C
0000000D
0000000D
00000008
ENDCHAR
STARTCHAR uni00AD
ENCODING 173
SWIDTH 399 0
DWIDTH 7 0
BBX 7 3 0 3
BITMAP
00005A90
148EB720
79510000
ENDCHAR
STARTCHAR registered
ENCODING 174
SWIDTH 382 0
DWIDTH 7 0
BBX 9 12 0 0
BITMAP
0007DC4000
009A68E300
0470004B00
0B89995C20
1C68059960
5968B90970
867F700B60
A4759B3E30
B37403CD00
961101D500
4D525D7000
08FEA30000
ENDCHAR
STARTCHAR macron
ENCODING 175
SWIDTH 399 0
DWIDTH 7 0
BBX 7 2 0 12
BITMAP
00013540
7CCCA960
ENDCHAR
STARTCHAR degree
ENCODING 176
SWIDTH 201 0
DWIDTH 4 0
BBX 4 4 0 6
BITMAP
1990
7483
5AA1
0100
ENDCHAR
STARTCHAR plusminus
ENCODING 177
SWIDTH 466 0
DWIDTH 8 0
BBX 7 9 0 1
BITMAP
000A0000
000C0000
000C0000
000C4870
257F9410
674E2000
000C2000
002B8980
1B976530
ENDCHAR
STARTCHAR twosuperior
ENCODING 178
SWIDTH 318 0
DWIDTH 6 0
BBX 6 6 0 3
BITMAP
069100
644400
005300
008000
027261
087510
ENDCHAR
STARTCHAR threesuperior
ENCODING 179
SWIDTH 280 0
DWIDTH 5 0
BBX 5 7 0 3
BITMAP
389500
406200
04A400
193280
000180
002910
019100
ENDCHAR
STARTCHAR acute
ENCODING 180
SWIDTH 155 0
DWIDTH 3 0
BBX 3 3 0 10
BITMAP
0960
7C10
3100
ENDCHAR
STARTCHAR mu
ENCODING 181
SWIDTH 387 0
DWIDTH 7 0
BBX 7 13 0 -3
BITMAP
44001600
68002D00
78003E00
79003E00
7A005E00
7B009F00
7C02FF00
7E1BAF10
7EE90810
85100000
83000000
83000000
20000000
ENDCHAR
STARTCHAR paragraph
ENCODING 182
SWIDTH 447 0
DWIDTH 8 0
BBX 8 12 0 0
BITMAP
00256750
0AFFFFD0
6FFFF6B0
8FFFE6B0
4CB697C0
000087B1
000068B2
000059B2
00004AA3
00003B93
00003B84
00002743
ENDCHAR
STARTCHAR periodcentered
ENCODING 183
SWIDTH 128 0
DWIDTH 2 0
BBX 2 2 0 4
BITMAP
01
89
ENDCHAR
STARTCHAR cedilla
ENCODING 184
SWIDTH 322 0
DWIDTH 6 0
BBX 5 7 1 -6
BITMAP
700000
D10000
CB2000
3AE700
005F20
5AED10
453000
ENDCHAR
STARTCHAR onesuperior
ENCODING 185
SWIDTH 112 0
DWIDTH 2 0
BBX 2 7 0 3
BITMAP
10
63
63
74
74
65
45
ENDCHAR
STARTCHAR ordmasculine
ENCODING 186
SWIDTH 212 0
DWIDTH 4 0
BBX 4 5 0 2
BITMAP
2C81
7327
A138
A175
7970
ENDCHAR
STARTCHAR guillemotright
ENCODING 187
SWIDTH 625 0
DWIDTH 11 0
BBX 11 10 0 2
BITMAP
1B30B9100000
07E93AE60000
0018E73BC400
000029C04D40
000001D01C20
00001C41B600
0003D63D7000
006E56E50000
08D37D300000
1A1071000000
ENDCHAR
STARTCHAR onequarter
ENCODING 188
SWIDTH 678 0
DWIDTH 12 0
BBX 12 15 0 -2
BITMAP
000034000000
000094000000
1000C0000000
630390004100
63085002E400
740C101CD400
742A00968400
757606808400
65B16A25CB93
46B4A7529400
057000008400
0A2000008400
0C0000008300
480000000000
120000000000
ENDCHAR
STARTCHAR onehalf
ENCODING 189
SWIDTH 693 0
DWIDTH 12 0
BBX 10 15 1 -2
BITMAP
0000430000
0000B20000
3001C00000
8005800000
800A300000
900C056000
9049A6A200
A08A307300
A0C0009100
83A000A000
0750056000
0B100B3796
1B004A6200
6600000000
2100000000
ENDCHAR
STARTCHAR threequarters
ENCODING 190
SWIDTH 868 0
DWIDTH 16 0
BBX 13 15 0 -2
BITMAP
00011000052000
05A9C0000C1000
380180002B9000
000A20007CD000
00AC8710BEB000
05920291F6A000
00000296F0A000
00001B2F61B850
0003C35F88C200
001B206900A000
0000009400A000
000000C000A000
00000390009000
00000750000000
00000310000000
ENDCHAR
STARTCHAR questiondown
ENCODING 191
SWIDTH 541 0
DWIDTH 10 0
BBX 9 15 1 -1
BITMAP
0000C20000
0000000000
0000000000
0000000000
0000000000
0003300000
0059BD1000
00001F2000
0001B90000
001CA00000
01C7000000
0A60000000
4A00000000
780005BE20
2BCCC95100
ENDCHAR
STARTCHAR Agrave
ENCODING 192
SWIDTH 390 0
DWIDTH 7 0
BBX 9 18 0 -1
BITMAP
0020000000
00C4000000
004D000000
0063000000
00F5000000
02FB000000
04BB200000
0595700000
0781C00000
0970B30000
0A50794980
0C406F8330
0D9ABF1000
0F810A5000
1D00058000
2B0001C000
250000A000
0000001000
ENDCHAR
STARTCHAR Aacute
ENCODING 193
SWIDTH 390 0
DWIDTH 7 0
BBX 9 18 0 -1
BITMAP
00B4000000
09B0000000
0400000000
0150000000
04F2000000
06F7000000
088C000000
0959300000
0B44800000
0D30D00000
0E10B66950
1F00AD7330
2F7BCC0000
3E600D1000
5900094000
6700058000
430001A000
0000001000
ENDCHAR
STARTCHAR Acircumflex
ENCODING 194
SWIDTH 390 0
DWIDTH 7 0
BBX 10 20 -1 -1
BITMAP
0038000000
00CA700000
0580A50000
0C101C4000
6600026000
0015000000
004F200000
006F700000
0088C00000
0095930000
00B4480000
00D30D0000
00E10B6695
01F00AD733
02F7BCC000
03E600D100
0590009400
0670005800
0430001A00
0000000100
ENDCHAR
STARTCHAR Atilde
ENCODING 195
SWIDTH 390 0
DWIDTH 7 0
BBX 10 19 -1 -1
BITMAP
05CB204400
1E28A3E500
1500BE6000
0000000000
0015000000
004F200000
006F700000
0088C00000
0095930000
00B4480000
00D30D0000
00E10B6695
01F00AD733
02F7BCC000
03E600D100
0590009400
0670005800
0430001A00
0000000100
ENDCHAR
STARTCHAR Adieresis
ENCODING 196
SWIDTH 390 0
DWIDTH 7 0
BBX 9 18 0 -1
BITMAP
0513300000
0A17500000
0000000000
0150000000
04F2000000
06F7000000
088C000000
0959300000
0B44800000
0D30D00000
0E10B66950
1F00AD7330
2F7BCC0000
3E600D1000
5900094000
6700058000
430001A000
0000001000
ENDCHAR
STARTCHAR Aring
ENCODING 197
SWIDTH 390 0
DWIDTH 7 0
BBX 9 17 0 -1
BITMAP
4BD9000000
D30C200000
AA8D100000
06F2000000
06F7000000
088C000000
0959300000
0B44800000
0D30D00000
0E10B66950
1F00AD7330
2F7BCC0000
3E600D1000
5900094000
6700058000
430001A000
0000001000
ENDCHAR
STARTCHAR AE
ENCODING 198
SWIDTH 708 0
DWIDTH 13 0
BBX 13 14 0 0
BITMAP
01500000001100
04F21B016BA200
06F70E9EA20000
088C0CA2000000
09593A30000000
0B448940005000
0D30D8505A2000
0E10BCAB600000
1F00AFD1000000
2F7BBFB0000540
3E600DB001A910
590009A05C4000
670007DC910000
43000383000000
ENDCHAR
STARTCHAR Ccedilla
ENCODING 199
SWIDTH 487 0
DWIDTH 9 0
BBX 9 20 0 -6
BITMAP
0000100000
0008DD2000
006A045000
00D1000000
0590000000
0A40000000
0D00000000
2B00000000
5900000200
7600000D30
8500007B00
760004D100
3C106C2000
07ED810000
0049000000
004C200000
001CF80000
00003D9000
00036DB000
002BA61000
ENDCHAR
STARTCHAR Egrave
ENCODING 200
SWIDTH 474 0
DWIDTH 9 0
BBX 9 17 0 0
BITMAP
0020000000
0096000000
002D100000
0002000000
38017B8000
3E8E920000
1F92000000
0E00000000
0D00014000
0C106C3000
0B6C710000
0BB1000000
0B60000610
0B6003C700
0B607C3000
0BBC700000
0892000000
ENDCHAR
STARTCHAR Eacute
ENCODING 201
SWIDTH 474 0
DWIDTH 9 0
BBX 9 16 0 0
BITMAP
0001B30000
000AA00000
0004000000
38017B8000
3E8E920000
1F92000000
0E00000000
0D00014000
0C106C3000
0B6C710000
0BB1000000
0B60000610
0B6003C700
0B607C3000
0BBC700000
0892000000
ENDCHAR
STARTCHAR Ecircumflex
ENCODING 202
SWIDTH 474 0
DWIDTH 9 0
BBX 9 19 0 0
BITMAP
0005700000
001CA50000
00760B3000
01C001C300
0840003500
0000000000
38017B8000
3E8E920000
1F92000000
0E00000000
0D00014000
0C106C3000
0B6C710000
0BB1000000
0B60000610
0B6003C700
0B607C3000
0BBC700000
0892000000
ENDCHAR
STARTCHAR Edieresis
ENCODING 203
SWIDTH 474 0
DWIDTH 9 0
BBX 9 17 0 0
BITMAP
0042240000
0093570000
0000000000
0000000000
38017B8000
3E8E920000
1F92000000
0E00000000
0D00014000
0C106C3000
0B6C710000
0BB1000000
0B60000610
0B6003C700
0B607C3000
0BBC700000
0892000000
ENDCHAR
STARTCHAR Igrave
ENCODING 204
SWIDTH 153 0
DWIDTH 3 0
BBX 3 18 0 0
BITMAP
2000
9600
2D10
0200
0500
0D00
0D00
0C10
0C20
0C20
0B30
0B30
0B30
0A30
0A30
0A40
0940
0730
ENDCHAR
STARTCHAR Iacute
ENCODING 205
SWIDTH 153 0
DWIDTH 3 0
BBX 3 17 0 0
BITMAP
05A0
3E30
2200
0500
0D00
0D00
0C10
0C20
0C20
0B30
0B30
0B30
0A30
0A30
0A40
0940
0730
ENDCHAR
STARTCHAR Icircumflex
ENCODING 206
SWIDTH 153 0
DWIDTH 3 0
BBX 7 19 -2 0
BITMAP
00290000
00A99000
03B08700
0A200A60
39000170
00050000
000D0000
000D0000
000C1000
000C2000
000C2000
000B3000
000B3000
000B3000
000A3000
000A3000
000A4000
00094000
00073000
ENDCHAR
STARTCHAR Idieresis
ENCODING 207
SWIDTH 153 0
DWIDTH 3 0
BBX 5 16 -1 0
BITMAP
060420
2A0930
005000
00D000
00D000
00C100
00C200
00C200
00B300
00B300
00B300
00A300
00A300
00A400
009400
007300
ENDCHAR
STARTCHAR Eth
ENCODING 208
SWIDTH 554 0
DWIDTH 10 0
BBX 10 14 0 0
BITMAP
0020000000
02B6541000
2CE879BB40
58C00002C4
03C0000058
02C0000066
01D00000B1
00D0000590
00D0002C10
25EBC1C500
48E83B9000
00A1AB0000
0058B10000
001B100000
ENDCHAR
STARTCHAR Ntilde
ENCODING 209
SWIDTH 541 0
DWIDTH 10 0
BBX 10 17 0 0
BITMAP
05CB205400
1E18A3E400
1401CE6000
0000000900
0000000C40
4300000960
6E30000870
5FD1000770
3D9A000670
1D0B700680
0E01D30680
0D103D1680
0B3006A690
0950009C90
0870000CC0
06800005F1
0470000010
ENDCHAR
STARTCHAR Ograve
ENCODING 210
SWIDTH 382 0
DWIDTH 7 0
BBX 7 17 0 0
BITMAP
00001000
0002D100
00008800
00000200
00001000
004EF600
02D53D30
08700870
0E200690
3C000590
69000790
86000970
A4000C40
B3002E00
95008800
4C47D100
08EA2000
ENDCHAR
STARTCHAR Oacute
ENCODING 211
SWIDTH 382 0
DWIDTH 7 0
BBX 7 15 0 0
BITMAP
000B4000
009B0000
00411000
004EF600
02D53D30
08700870
0E200690
3C000590
69000790
86000970
A4000C40
B3002E00
95008800
4C47D100
08EA2000
ENDCHAR
STARTCHAR Ocircumflex
ENCODING 212
SWIDTH 382 0
DWIDTH 7 0
BBX 7 17 0 0
BITMAP
00570000
01CA5000
0760B300
1C001C30
84001350
004EF600
02D53D30
08700870
0E200690
3C000590
69000790
86000970
A4000C40
B3002E00
95008800
4C47D100
08EA2000
ENDCHAR
STARTCHAR Otilde
ENCODING 213
SWIDTH 382 0
DWIDTH 7 0
BBX 8 16 0 0
BITMAP
04CC3045
0E27B2E6
0500BF70
00001000
004EF600
02D53D30
08700870
0E200690
3C000590
69000790
86000970
A4000C40
B3002E00
95008800
4C47D100
08EA2000
ENDCHAR
STARTCHAR Odieresis
ENCODING 214
SWIDTH 382 0
DWIDTH 7 0
BBX 7 15 0 0
BITMAP
00150510
00380A10
00001000
004EF600
02D53D30
08700870
0E200690
3C000590
69000790
86000970
A4000C40
B3002E00
95008800
4C47D100
08EA2000
ENDCHAR
STARTCHAR multiply
ENCODING 215
SWIDTH 454 0
DWIDTH 8 0
BBX 6 7 1 2
BITMAP
320010
3A01C2
097B60
01F900
099B00
690870
210270
ENDCHAR
STARTCHAR Oslash
ENCODING 216
SWIDTH 382 0
DWIDTH 7 0
BBX 7 15 0 -2
BITMAP
00011700
004EFA00
02D59E30
0870C970
0E23A690
3C075590
690C1790
862B0970
A4660C40
B3B22E00
96C08800
4E97D100
0CFA2000
0C000000
03000000
ENDCHAR
STARTCHAR Ugrave
ENCODING 217
SWIDTH 450 0
DWIDTH 8 0
BBX 8 17 0 -2
BITMAP
00010000
002D1000
00098000
00002010
46000087
7A0000B8
6A0000D7
6A0001F6
5A0003F6
5A0006F5
4A000AD5
4A000D85
2B006867
0D54C148
04BA203A
0000001B
0000000A
ENDCHAR
STARTCHAR Uacute
ENCODING 218
SWIDTH 450 0
DWIDTH 8 0
BBX 8 15 0 -2
BITMAP
00009600
0007C110
46031087
7A0000B8
6A0000D7
6A0001F6
5A0003F6
5A0006F5
4A000AD5
4A000D85
2B006867
0D54C148
04BA203A
0000001B
0000000A
ENDCHAR
STARTCHAR Ucircumflex
ENCODING 219
SWIDTH 450 0
DWIDTH 8 0
BBX 8 19 0 -2
BITMAP
00092000
006BB100
00C14B00
076007A1
0B000071
00000010
46000087
7A0000B8
6A0000D7
6A0001F6
5A0003F6
5A0006F5
4A000AD5
4A000D85
2B006867
0D54C148
04BA203A
0000001B
0000000A
ENDCHAR
STARTCHAR Udieresis
ENCODING 220
SWIDTH 450 0
DWIDTH 8 0
BBX 8 16 0 -2
BITMAP
00331500
00754800
00000010
46000087
7A0000B8
6A0000D7
6A0001F6
5A0003F6
5A0006F5
4A000AD5
4A000D85
2B006867
0D54C148
04BA203A
0000001B
0000000A
ENDCHAR
STARTCHAR Yacute
ENCODING 221
SWIDTH 483 0
DWIDTH 9 0
BBX 9 17 0 0
BITMAP
00002D0000
0000D70000
0000400000
0000000730
0000000B10
4000001C00
7700005800
1D4000A300
04E201E000
006D179000
0008DD4000
0000AD0000
0000980000
0000C30000
0002D00000
0007800000
0008300000
ENDCHAR
STARTCHAR Thorn
ENCODING 222
SWIDTH 398 0
DWIDTH 7 0
BBX 7 15 0 0
BITMAP
17000000
2D000000
3B000000
3A06A910
4BBB6C80
5F9003C0
5E1002B0
6A000790
69003D20
7906C200
7CD91000
7C200000
79000000
69000000
35000000
ENDCHAR
STARTCHAR germandbls
ENCODING 223
SWIDTH 537 0
DWIDTH 10 0
BBX 10 13 0 0
BITMAP
1017DEC000
89C711D000
4F30087000
2D004A0000
0D03B7AB91
0C5EC500C3
0AF90001A0
08C0000B20
067000A600
04900A9000
01B0AA0000
00D3900000
0080000000
ENDCHAR
STARTCHAR agrave
ENCODING 224
SWIDTH 366 0
DWIDTH 7 0
BBX 7 14 0 0
BITMAP
00200000
00D30000
005B0000
00030000
0006A300
006EC800
02E38800
0990B800
1E22FA00
6A0A8C00
B44D0D00
D1D50C10
DCA00A20
69000610
ENDCHAR
STARTCHAR aacute
ENCODING 225
SWIDTH 366 0
DWIDTH 7 0
BBX 7 13 0 0
BITMAP
0005A000
003E3000
00220000
0006A300
006EC800
02E38800
0990B800
1E22FA00
6A0A8C00
B44D0D00
D1D50C10
DCA00A20
69000610
ENDCHAR
STARTCHAR acircumflex
ENCODING 226
SWIDTH 366 0
DWIDTH 7 0
BBX 7 17 0 0
BITMAP
00650000
02CB3000
0941C200
2A003C20
92000530
00000000
00000000
0006A300
006EC800
02E38800
0990B800
1E22FA00
6A0A8C00
B44D0D00
D1D50C10
DCA00A20
69000610
ENDCHAR
STARTCHAR atilde
ENCODING 227
SWIDTH 366 0
DWIDTH 7 0
BBX 8 14 0 0
BITMAP
08C90071
6B1C57E1
3203ED30
00000000
0006A300
006EC800
02E38800
0990B800
1E22FA00
6A0A8C00
B44D0D00
D1D50C10
DCA00A20
69000610
ENDCHAR
STARTCHAR adieresis
ENCODING 228
SWIDTH 366 0
DWIDTH 7 0
BBX 7 14 0 0
BITMAP
01505100
0471A100
00000000
00000000
0006A300
006EC800
02E38800
0990B800
1E22FA00
6A0A8C00
B44D0D00
D1D50C10
DCA00A20
69000610
ENDCHAR
STARTCHAR aring
ENCODING 229
SWIDTH 366 0
DWIDTH 7 0
BBX 7 13 0 0
BITMAP
00022000
02DAD600
06905A00
01BCE700
006EC800
02E38800
0990B800
1E22FA00
6A0A8C00
B44D0D00
D1D50C10
DCA00A20
69000610
ENDCHAR
STARTCHAR ae
ENCODING 230
SWIDTH 705 0
DWIDTH 13 0
BBX 13 11 0 0
BITMAP
00000000100000
0006A31AED4000
006EC88B16D000
02E389E24D5000
0990BEECA20000
1E22FFD3000210
6A0ABF60001D40
B44D0E5000A900
D1D50C5008A000
DC900AC7B80000
69000656200000
ENDCHAR
STARTCHAR ccedilla
ENCODING 231
SWIDTH 390 0
DWIDTH 7 0
BBX 7 17 0 -6
BITMAP
00680000
06CB5000
0D367000
2D014000
5A000000
67000000
85000120
75000850
57000D20
1C208900
05ED8000
01C00000
01F81000
006CD400
00008E00
006AEC00
00763000
ENDCHAR
STARTCHAR egrave
ENCODING 232
SWIDTH 461 0
DWIDTH 8 0
BBX 9 14 -1 0
BITMAP
0000200000
0001D10000
0000790000
0000030000
0000672000
000AC8D200
004D12D500
00B76C5000
03FE810000
1DF2000280
04D0000B80
00C0008B00
00C108B100
005DC60000
ENDCHAR
STARTCHAR eacute
ENCODING 233
SWIDTH 461 0
DWIDTH 8 0
BBX 9 13 -1 0
BITMAP
0000078000
00005D2000
0000310000
0000672000
000AC8D200
004D12D500
00B76C5000
03FE810000
1DF2000280
04D0000B80
00C0008B00
00C108B100
005DC60000
ENDCHAR
STARTCHAR ecircumflex
ENCODING 234
SWIDTH 461 0
DWIDTH 8 0
BBX 9 17 -1 0
BITMAP
0000830000
0004BB2000
000B22C100
0058005B10
00B1000620
0000000000
0000000000
0000672000
000AC8D200
004D12D500
00B76C5000
03FE810000
1DF2000280
04D0000B80
00C0008B00
00C108B100
005DC60000
ENDCHAR
STARTCHAR edieresis
ENCODING 235
SWIDTH 461 0
DWIDTH 8 0
BBX 9 14 -1 0
BITMAP
0002416000
0006639000
0000000000
0000000000
0000672000
000AC8D200
004D12D500
00B76C5000
03FE810000
1DF2000280
04D0000B80
00C0008B00
00C108B100
005DC60000
ENDCHAR
STARTCHAR igrave
ENCODING 236
SWIDTH 132 0
DWIDTH 2 0
BBX 3 16 -1 -1
BITMAP
1500
0D40
0390
0000
0120
0590
0690
0690
0690
0690
0690
0590
0590
0490
0490
0010
ENDCHAR
STARTCHAR iacute
ENCODING 237
SWIDTH 132 0
DWIDTH 2 0
BBX 3 17 0 -1
BITMAP
0010
0880
5C10
1100
0000
1200
5900
6900
6900
6900
6900
6900
5900
5900
4900
4900
0100
ENDCHAR
STARTCHAR icircumflex
ENCODING 238
SWIDTH 132 0
DWIDTH 2 0
BBX 7 18 -2 -1
BITMAP
00840000
03BC2000
0B22C100
59004B10
B1000620
00000000
00120000
00590000
00690000
00690000
00690000
00690000
00690000
00590000
00590000
00490000
00490000
00010000
ENDCHAR
STARTCHAR idieresis
ENCODING 239
SWIDTH 132 0
DWIDTH 2 0
BBX 4 15 -1 -1
BITMAP
2406
6629
0000
0120
0590
0690
0690
0690
0690
0690
0590
0590
0490
0490
0010
ENDCHAR
STARTCHAR eth
ENCODING 240
SWIDTH 481 0
DWIDTH 9 0
BBX 8 12 1 -1
BITMAP
00A60000
003D0000
000A6131
07CEFB82
0220A400
07615900
7EDD3C00
B307CB00
A100D800
6804E200
0AEC3000
00100000
ENDCHAR
STARTCHAR ntilde
ENCODING 241
SWIDTH 483 0
DWIDTH 9 0
BBX 8 15 0 0
BITMAP
01AC7018
0981E3AC
05105EB1
00000000
21000530
7600BEE1
6906D167
5B0D504A
4C2E003C
3E69002E
2FA4001F
1FE1000F
0FC0000E
0D90000D
0B500006
ENDCHAR
STARTCHAR ograve
ENCODING 242
SWIDTH 266 0
DWIDTH 5 0
BBX 5 14 0 0
BITMAP
020000
0C4000
04D000
003000
08C300
0E7B00
390840
660660
950670
A50870
A50A50
951E10
889800
4E9000
ENDCHAR
STARTCHAR oacute
ENCODING 243
SWIDTH 266 0
DWIDTH 5 0
BBX 5 13 0 0
BITMAP
004B00
02E400
013000
08C300
0E7B00
390840
660660
950670
A50870
A50A50
951E10
889800
4E9000
ENDCHAR
STARTCHAR ocircumflex
ENCODING 244
SWIDTH 266 0
DWIDTH 5 0
BBX 7 17 -1 0
BITMAP
00560000
01CA5000
0860B300
1B002C30
84000450
00000000
00000000
008C3000
00E7B000
03908400
06606600
09506700
0A508700
0A50A500
0951E100
08898000
04E90000
ENDCHAR
STARTCHAR otilde
ENCODING 245
SWIDTH 266 0
DWIDTH 5 0
BBX 8 14 -1 0
BITMAP
08CA0072
5B1C67E1
3203ED30
00000000
008C3000
00E7B000
03908400
06606600
09506700
0A508700
0A50A500
0951E100
08898000
04E90000
ENDCHAR
STARTCHAR odieresis
ENCODING 246
SWIDTH 266 0
DWIDTH 5 0
BBX 5 14 0 0
BITMAP
150510
390A20
000000
000000
08C300
0E7B00
390840
660660
950670
A50870
A50A50
951E10
889800
4E9000
ENDCHAR
STARTCHAR divide
ENCODING 247
SWIDTH 345 0
DWIDTH 6 0
BBX 6 6 0 2
BITMAP
005300
003200
379BC9
254321
000100
005600
ENDCHAR
STARTCHAR oslash
ENCODING 248
SWIDTH 266 0
DWIDTH 5 0
BBX 5 13 0 -2
BITMAP
000050
08C880
0E7E20
391F40
666C60
95B770
A7A870
AC5A50
9E1E10
8A9800
9E9000
C00000
400000
ENDCHAR
STARTCHAR ugrave
ENCODING 249
SWIDTH 387 0
DWIDTH 7 0
BBX 7 15 0 -1
BITMAP
00200000
00A50000
003D0000
00020000
00000000
45001700
58002C00
58003C00
59003C00
5A005C00
4B00AC00
2C03FD00
0D2C9D10
07F90B40
00100220
ENDCHAR
STARTCHAR uacute
ENCODING 250
SWIDTH 387 0
DWIDTH 7 0
BBX 7 14 0 -1
BITMAP
0003C000
001E5000
00130000
00000000
45001700
58002C00
58003C00
59003C00
5A005C00
4B00AC00
2C03FD00
0D2C9D10
07F90B40
00100220
ENDCHAR
STARTCHAR ucircumflex
ENCODING 251
SWIDTH 387 0
DWIDTH 7 0
BBX 7 18 0 -1
BITMAP
00470000
00CA6000
0670B400
1C001C40
75000350
00000000
00000000
00000000
45001700
58002C00
58003C00
59003C00
5A005C00
4B00AC00
2C03FD00
0D2C9D10
07F90B40
00100220
ENDCHAR
STARTCHAR udieresis
ENCODING 252
SWIDTH 387 0
DWIDTH 7 0
BBX 7 15 0 -1
BITMAP
01604200
0290A200
00000000
00000000
00000000
45001700
58002C00
58003C00
59003C00
5A005C00
4B00AC00
2C03FD00
0D2C9D10
07F90B40
00100220
ENDCHAR
STARTCHAR yacute
ENCODING 253
SWIDTH 363 0
DWIDTH 7 0
BBX 7 20 0 -7
BITMAP
00069000
003E3000
00220000
00000300
10000A20
89000B20
2E300C20
06B00D20
00C60E10
003E2F10
0008DF10
0001DF00
00004E00
00001D00
00002C00
00003A00
00005900
00006800
00007700
00006400
ENDCHAR
STARTCHAR thorn
ENCODING 254
SWIDTH 439 0
DWIDTH 8 0
BBX 8 13 0 -1
BITMAP
45000000
7806BBA2
69C61067
6F3000B3
59000680
48007A00
3A2BA000
2EE70000
2E400000
3A000000
49000000
58000000
23000000
ENDCHAR
STARTCHAR ydieresis
ENCODING 255
SWIDTH 363 0
DWIDTH 7 0
BBX 7 21 0 -7
BITMAP
02505100
0571A100
00000000
00000000
00000300
10000A20
89000B20
2E300C20
06B00D20
00C60E10
003E2F10
0008DF10
0001DF00
00004E00
00001D00
00002C00
00003A00
00005900
00006800
00007700
00006400
ENDCHAR
STARTCHAR Amacron
ENCODING 256
SWIDTH 390 0
DWIDTH 7 0
BBX 9 17 0 -1
BITMAP
0002452000
ACCBA94000
0150000000
04F2000000
06F7000000
088C000000
0959300000
0B44800000
0D30D00000
0E10B66950
1F00AD7330
2F7BCC0000
3E600D1000
5900094000
6700058000
430001A000
0000001000
ENDCHAR
STARTCHAR amacron
ENCODING 257
SWIDTH 366 0
DWIDTH 7 0
BBX 7 14 0 0
BITMAP
00024530
9CCBA950
00000000
00000000
0006A300
006EC800
02E38800
0990B800
1E22FA00
6A0A8C00
B44D0D00
D1D50C10
DCA00A20
69000610
ENDCHAR
STARTCHAR Abreve
ENCODING 258
SWIDTH 390 0
DWIDTH 7 0
BBX 9 19 0 -1
BITMAP
0000110000
0C21D40000
04EE800000
0012000000
0150000000
04F2000000
06F7000000
088C000000
0959300000
0B44800000
0D30D00000
0E10B66950
1F00AD7330
2F7BCC0000
3E600D1000
5900094000
6700058000
430001A000
0000001000
ENDCHAR
STARTCHAR abreve
ENCODING 259
SWIDTH 366 0
DWIDTH 7 0
BBX 7 14 0 0
BITMAP
00000200
08608900
01CEC100
00030000
0006A300
006EC800
02E38800
0990B800
1E22FA00
6A0A8C00
B44D0D00
D1D50C10
DCA00A20
69000610
ENDCHAR
STARTCHAR Aogonek
ENCODING 260
SWIDTH 390 0
DWIDTH 7 0
BBX 9 19 0 -5
BITMAP
0150000000
04F2000000
06F7000000
088C000000
0959300000
0B44800000
0D30D00000
0E10B66950
1F00AD7330
2F7BCC0000
3E600D1000
5900094000
6700058000
430001B000
00001C5000
00006A0000
0000860110
00004DAE70
0000036300
ENDCHAR
STARTCHAR aogonek
ENCODING 261
SWIDTH 366 0
DWIDTH 7 0
BBX 8 14 0 -4
BITMAP
0006A300
006EC800
02E38800
0990B800
1E22FA00
6A0A8C00
B44D0D00
D1D50C10
DCA00A20
69004D10
0000D300
0002C000
0001E58C
00004A93
ENDCHAR
STARTCHAR Cacute
ENCODING 262
SWIDTH 487 0
DWIDTH 9 0
BBX 9 16 0 0
BITMAP
0000870000
0006D10000
0003200000
0008DD2000
006A045000
00D1000000
0590000000
0A40000000
0D00000000
2B00000000
5900000200
7600000D30
8500007B00
760004D100
3C106C2000
07ED810000
ENDCHAR
STARTCHAR cacute
ENCODING 263
SWIDTH 390 0
DWIDTH 7 0
BBX 7 14 0 0
BITMAP
00096000
007C1000
00310000
00680000
06CB5000
0D367000
2D014000
5A000000
67000000
85000120
75000850
57000D20
1C208900
05ED8000
ENDCHAR
STARTCHAR Ccircumflex
ENCODING 264
SWIDTH 487 0
DWIDTH 9 0
BBX 9 18 0 0
BITMAP
0007500000
002CB30000
00941C2000
03A003C200
0A20105300
0008DD2000
006A045000
00D1000000
0590000000
0A40000000
0D00000000
2B00000000
5900000200
7600000D30
8500007B00
760004D100
3C106C2000
07ED810000
ENDCHAR
STARTCHAR ccircumflex
ENCODING 265
SWIDTH 390 0
DWIDTH 7 0
BBX 7 17 0 0
BITMAP
00470000
00CA6000
0670B400
1C001C40
75000350
00000000
00680000
06CB5000
0D367000
2D014000
5A000000
67000000
85000120
75000850
57000D20
1C208900
05ED8000
ENDCHAR
STARTCHAR Cdotaccent
ENCODING 266
SWIDTH 487 0
DWIDTH 9 0
BBX 9 16 0 0
BITMAP
0005B00000
0000100000
0000100000
0008DD2000
006A045000
00D1000000
0590000000
0A40000000
0D00000000
2B00000000
5900000200
7600000D30
8500007B00
760004D100
3C106C2000
07ED810000
ENDCHAR
STARTCHAR cdotaccent
ENCODING 267
SWIDTH 390 0
DWIDTH 7 0
BBX 7 13 0 0
BITMAP
00310000
00810000
00680000
07CB4000
0E377000
3D014000
59000000
77000000
85000120
85000950
67000D20
1C108900
06ED7000
ENDCHAR
STARTCHAR Ccaron
ENCODING 268
SWIDTH 487 0
DWIDTH 9 0
BBX 9 17 0 0
BITMAP
0310001000
02A001B300
00592A2000
0008A10000
0008DD2000
006A045000
00D1000000
0590000000
0A40000000
0D00000000
2B00000000
5900000200
7600000D30
8500007B00
760004D100
3C106C2000
07ED810000
ENDCHAR
STARTCHAR ccaron
ENCODING 269
SWIDTH 390 0
DWIDTH 7 0
BBX 7 15 0 0
BITMAP
22000000
1B101B40
03A1A200
007B1000
00680000
06CB5000
0D367000
2D014000
5A000000
67000000
85000120
75000850
57000D20
1C208900
05ED8000
ENDCHAR
STARTCHAR Dcaron
ENCODING 270
SWIDTH 554 0
DWIDTH 10 0
BBX 10 17 0 0
BITMAP
0040000100
0049003B20
000764A100
0020A80000
02B6541000
2CE879BB40
58C00002C4
03C0000058
02D0000066
01D00000B1
00D0000590
00C0002C10
00C001C500
00B00B9000
00A1AB0000
0058B10000
001B100000
ENDCHAR
STARTCHAR Emacron
ENCODING 274
SWIDTH 474 0
DWIDTH 9 0
BBX 9 16 0 0
BITMAP
0001345000
4BCCBA9000
0000000000
38017B8000
3E8E920000
1F92000000
0E00000000
0D00014000
0C106C3000
0B6C710000
0BB1000000
0B60000610
0B6003C700
0B607C3000
0BBC700000
0892000000
ENDCHAR
STARTCHAR emacron
ENCODING 275
SWIDTH 461 0
DWIDTH 8 0
BBX 9 14 -1 0
BITMAP
0000024520
00BCCBA930
0000000000
0000000000
0000672000
000AC8D200
004D12D500
00B76C5000
03FE810000
1DF2000280
04D0000B80
00C0008B00
00C108B100
005DC60000
ENDCHAR
STARTCHAR Ebreve
ENCODING 276
SWIDTH 474 0
DWIDTH 9 0
BBX 9 17 0 0
BITMAP
0000012000
00A40A7000
002DEB0000
0001300000
38017B8000
3E8E920000
1F92000000
0E00000000
0D00014000
0C106C3000
0B6C710000
0BB1000000
0B60000610
0B6003C700
0B607C3000
0BBC700000
0892000000
ENDCHAR
STARTCHAR ebreve
ENCODING 277
SWIDTH 461 0
DWIDTH 8 0
BBX 9 14 -1 0
BITMAP
0000000200
000A40A700
0001DEB100
0000130000
0000672000
000AC8D200
004D12D500
00B76C5000
03FE810000
1DF2000280
04D0000B80
00C0008B00
00C108B100
005DC60000
ENDCHAR
STARTCHAR Edotaccent
ENCODING 278
SWIDTH 474 0
DWIDTH 9 0
BBX 9 14 0 0
BITMAP
001D200000
38037B8000
3E8E920000
1F92000000
0E00000000
0D00014000
0C106C3000
0B6C710000
0BB1000000
0B60000610
0B6003C700
0B607C3000
0BBC700000
0892000000
ENDCHAR
STARTCHAR edotaccent
ENCODING 279
SWIDTH 461 0
DWIDTH 8 0
BBX 9 11 -1 0
BITMAP
00005B0000
0000682000
000AC8D200
004D12D500
00B76C5000
03FE810000
1DF2000280
04D0000B80
00C0008B00
00C108B100
005DC60000
ENDCHAR
STARTCHAR Eogonek
ENCODING 280
SWIDTH 474 0
DWIDTH 9 0
BBX 9 15 0 -2
BITMAP
38017B8000
3E8E920000
1F92000000
0E00000000
0D00014000
0C106C3000
0B6C710000
0BB1000000
0B60000610
0B6003C700
0B607D3000
0BBDE20000
0896A00000
0002D58A00
00006B9300
ENDCHAR
STARTCHAR eogonek
ENCODING 281
SWIDTH 461 0
DWIDTH 8 0
BBX 9 14 -1 -4
BITMAP
0000672000
000AC8D200
004D12D500
00B76C5000
03FE810000
1DF2000280
04D0000B80
00C0008B00
00C108B100
005DE80000
0006A00000
000A500000
0007A7C600
00007A6000
ENDCHAR
STARTCHAR Ecaron
ENCODING 282
SWIDTH 474 0
DWIDTH 9 0
BBX 9 17 0 0
BITMAP
0400001000
085006A000
00B2770000
002C500000
38017B8000
3E8E920000
1F92000000
0E00000000
0D00014000
0C106C3000
0B6C710000
0BB1000000
0B60000610
0B6003C700
0B607C3000
0BBC700000
0892000000
ENDCHAR
STARTCHAR ecaron
ENCODING 283
SWIDTH 461 0
DWIDTH 8 0
BBX 9 15 -1 0
BITMAP
0040000100
0057004B10
0009459000
0001B70000
0000000000
0000672000
000AC8D200
004D12D500
00B76C5000
03FE810000
1DF2000280
04D0000B80
00C0008B00
00C108B100
005DC60000
ENDCHAR
STARTCHAR Gcircumflex
ENCODING 284
SWIDTH 591 0
DWIDTH 11 0
BBX 11 19 0 -2
BITMAP
000075000000
0002CB300000
000A41C20000
003A003C2000
00A200053000
000006A50000
0000AA500000
000A60000000
005A00000000
01D100001310
0670029DFC20
0C100123E400
3A000008F100
7600004FE000
950005E5D000
7D66AD31E000
06BB7101E000
00000001F100
00000000B100
ENDCHAR
STARTCHAR gcircumflex
ENCODING 285
SWIDTH 437 0
DWIDTH 8 0
BBX 8 25 0 -8
BITMAP
001A1000
007AB000
01C05A00
08500890
1A000080
00000000
00000000
0003BC40
004D4DA0
01C22EB0
085099D0
1C01D4E0
680873F0
942E12F1
A7C602F2
3F9001F3
000001F4
000001F3
000001F1
000002D0
000005A0
00000B40
00006C00
0149E300
03882000
ENDCHAR
STARTCHAR Gbreve
ENCODING 286
SWIDTH 591 0
DWIDTH 11 0
BBX 11 17 0 -2
BITMAP
000000030000
0004A04E0000
00008EE40000
000008B50000
0000AA500000
000A60000000
005A00000000
01D100001310
0670029DFC20
0C100123E400
3A000008F100
7600004FE000
950005E5D000
7D66AD31E000
06BB7101E000
00000001F100
00000000B100
ENDCHAR
STARTCHAR gbreve
ENCODING 287
SWIDTH 437 0
DWIDTH 8 0
BBX 8 23 0 -8
BITMAP
00000110
00C21D40
004EE800
00012000
00000000
0003BC40
004D4DA0
01C22EB0
085099D0
1C01D4E0
680873F0
942E12F1
A7C602F2
3F9001F3
000001F4
000001F3
000001F1
000002D0
000005A0
00000B40
00006C00
0149E300
03882000
ENDCHAR
STARTCHAR Gdotaccent
ENCODING 288
SWIDTH 591 0
DWIDTH 11 0
BBX 11 17 0 -2
BITMAP
00001D200000
000002000000
000000000000
000003980000
00006C610000
0005A0000000
001C10000000
009500001220
02B0007CFE40
08500022B900
0C000003F600
2B00001DF400
4A0002C9B300
2E868E70B300
03AB9200C400
00000000B500
000000007500
ENDCHAR
STARTCHAR gdotaccent
ENCODING 289
SWIDTH 437 0
DWIDTH 8 0
BBX 8 20 0 -8
BITMAP
0000A600
00001000
0003BC40
004D4DA0
01C22EB0
085099D0
1C01D4E0
680873F0
942E12F1
A7C602F2
3F9001F3
000001F4
000001F3
000001F1
000002D0
000005A0
00000B40
00006C00
0149E300
03882000
ENDCHAR
STARTCHAR Gcommaaccent
ENCODING 290
SWIDTH 591 0
DWIDTH 11 0
BBX 11 18 0 -6
BITMAP
000006A50000
0000AA500000
000A60000000
005A00000000
01D100001310
0670029DFC20
0C100123E400
3A000008F100
7600004FE000
950005E5D000
7D66AD31E000
06BB7101E000
00000001F100
00000200B100
00006C000000
00004C000000
000049000000
000044000000
ENDCHAR
STARTCHAR Hcircumflex
ENCODING 292
SWIDTH 424 0
DWIDTH 8 0
BBX 7 19 0 0
BITMAP
00480000
00CA6000
0680A500
0C101C40
65000260
00000000
00000000
65000C10
77000B30
68000940
58000850
59000A70
4A005F80
4C3AA5A0
3FC302B0
3D1001D0
2A0000D0
2B0000D0
1B0000A0
ENDCHAR
STARTCHAR hcircumflex
ENCODING 293
SWIDTH 466 0
DWIDTH 8 0
BBX 9 18 0 -1
BITMAP
0000470000
0000CA6000
000680A400
111C101C40
6865000360
6800000000
6800000000
6900000000
69004BC400
6906F97C00
6A1E903D00
6A6D103D00
6AC6002D00
6DD0002E00
6F60001E00
6E00001E00
4500000E00
0000000100
ENDCHAR
STARTCHAR Hbar
ENCODING 294
SWIDTH 424 0
DWIDTH 8 0
BBX 7 12 0 0
BITMAP
65000C10
77000B30
68000950
8DBDEEA0
6A100A70
4A005F80
4C3AA5A0
3FC302B0
3D1001D0
2A0000D0
2B0000D0
1B0000A0
ENDCHAR
STARTCHAR hbar
ENCODING 295
SWIDTH 466 0
DWIDTH 8 0
BBX 9 15 -1 -1
BITMAP
0110000000
0680000000
0680000000
0680000000
39C8AB4000
8BB547CC40
06906F97C0
06A1E903D0
06A6D103D0
06AC6002D0
06DD0002E0
06F60001E0
06E00001E0
04500000E0
0000000010
ENDCHAR
STARTCHAR Itilde
ENCODING 296
SWIDTH 153 0
DWIDTH 3 0
BBX 7 18 -2 0
BITMAP
2BC60270
B63E2BA0
5007FA10
00000000
00050000
000D0000
000D0000
000C1000
000C2000
000C2000
000B3000
000B3000
000B3000
000A3000
000A3000
000A4000
00094000
00073000
ENDCHAR
STARTCHAR itilde
ENCODING 297
SWIDTH 132 0
DWIDTH 2 0
BBX 8 16 -3 -1
BITMAP
00110000
09CE6087
1E14D7E3
02006A30
00012000
00059000
00069000
00069000
00069000
00069000
00069000
00059000
00059000
00049000
00049000
00001000
ENDCHAR
STARTCHAR imacron
ENCODING 299
SWIDTH 132 0
DWIDTH 2 0
BBX 7 15 -2 -1
BITMAP
00024520
ACCBA940
00000000
00120000
00590000
00690000
00690000
00690000
00690000
00690000
00590000
00590000
00490000
00490000
00010000
ENDCHAR
STARTCHAR Ibreve
ENCODING 300
SWIDTH 153 0
DWIDTH 3 0
BBX 5 18 -1 0
BITMAP
000030
8707A0
0BED20
003000
005000
00D000
00D000
00C100
00C200
00C200
00B300
00B300
00B300
00A300
00A300
00A400
009400
007300
ENDCHAR
STARTCHAR ibreve
ENCODING 301
SWIDTH 132 0
DWIDTH 2 0
BBX 5 16 -1 -1
BITMAP
000010
930880
2DDC10
014000
012000
059000
069000
069000
069000
069000
069000
059000
059000
049000
049000
001000
ENDCHAR
STARTCHAR Iogonek
ENCODING 302
SWIDTH 153 0
DWIDTH 3 0
BBX 5 18 0 -4
BITMAP
050000
0D0000
0D0000
0C1000
0C2000
0C2000
0B3000
0B3000
0B3000
0A3000
0A3000
0A4000
0A4000
2D4000
960000
C20000
8B9E40
067300
ENDCHAR
STARTCHAR iogonek
ENCODING 303
SWIDTH 132 0
DWIDTH 2 0
BBX 5 19 -1 -5
BITMAP
020000
063000
000000
012000
059000
069000
069000
069000
069000
069000
059000
059000
049000
05A000
1D3000
690000
690340
1DEE60
002000
ENDCHAR
STARTCHAR Idotaccent
ENCODING 304
SWIDTH 153 0
DWIDTH 3 0
BBX 3 16 0 0
BITMAP
2D00
0200
1400
2B00
1C00
0D00
0E00
0E00
0E00
0E00
0E00
0D00
0D10
0D10
0C10
0A10
ENDCHAR
STARTCHAR dotlessi
ENCODING 305
SWIDTH 132 0
DWIDTH 2 0
BBX 2 12 0 -1
BITMAP
12
59
69
69
69
69
69
59
59
49
49
01
ENDCHAR
STARTCHAR Jcircumflex
ENCODING 308
SWIDTH 371 0
DWIDTH 7 0
BBX 8 20 0 -2
BITMAP
00056000
001CB400
00861B30
01B002C3
08300044
00008000
0000B200
0000A400
00009600
00007800
00005B00
00003C00
00001E00
00000E00
00000D10
40000C10
82000C10
2A000C00
04B8B500
00021000
ENDCHAR
STARTCHAR jcircumflex
ENCODING 309
SWIDTH 112 0
DWIDTH 2 0
BBX 9 23 -4 -6
BITMAP
0000A20000
0006AB1000
001C14B000
0076007A00
01B0000810
0000000000
0000000000
0000110000
0000760000
0000760000
0000860000
0000770000
0000680000
0000590000
00004A0000
00003B0000
00002C0000
00001D0000
00000D0000
00001D0000
15004A0000
0B70A60000
007CC10000
ENDCHAR
STARTCHAR Kcommaaccent
ENCODING 310
SWIDTH 524 0
DWIDTH 9 0
BBX 10 18 0 -6
BITMAP
7800004000
3A0006A000
1C003D1000
0D00C50000
0D07900000
0C3C100000
0BD5000000
0AE0000000
08D6544441
06C8888881
04A0000000
0190000000
0000000000
0000200000
0000F30000
0000D30000
0000D00000
0000800000
ENDCHAR
STARTCHAR kcommaaccent
ENCODING 311
SWIDTH 428 0
DWIDTH 8 0
BBX 8 20 0 -6
BITMAP
09000000
1F000000
2F000000
2F000062
3E0005E2
3D001D80
4C009D10
4B05F400
5B2E7000
6CD80000
6F800000
7ED61000
7828DB71
860005A1
51000000
00021000
000D5000
000B5000
000B2000
00080000
ENDCHAR
STARTCHAR Lacute
ENCODING 313
SWIDTH 537 0
DWIDTH 10 0
BBX 10 13 0 0
BITMAP
00001B3000
1200AA0000
7B00400000
6C00000000
5D00000000
5D00000000
4E00000000
4E00000000
3F00000000
3F000016D6
3F1017D710
2F59E81000
1EC7100000
ENDCHAR
STARTCHAR lacute
ENCODING 314
SWIDTH 137 0
DWIDTH 2 0
BBX 3 20 0 0
BITMAP
1B30
9A00
4000
0000
2100
8500
6600
4700
3800
2900
1A00
1B00
0C00
0C00
0C00
0D00
0E00
1E00
2E00
1800
ENDCHAR
STARTCHAR Lcommaaccent
ENCODING 315
SWIDTH 537 0
DWIDTH 10 0
BBX 10 18 0 -6
BITMAP
1200000000
7B00000000
6C00000000
5D00000000
5D00000000
4E00000000
4E00000000
3F00000000
3F000016D6
3F1017D710
2F59E81000
1EC7100000
0000000000
0000200000
0000D50000
0000C50000
0000C20000
0000800000
ENDCHAR
STARTCHAR lcommaaccent
ENCODING 316
SWIDTH 137 0
DWIDTH 2 0
BBX 2 22 0 -6
BITMAP
21
85
66
47
38
29
1A
1B
0C
0C
0C
0D
0E
1E
2E
18
00
12
7B
5B
58
44
ENDCHAR
STARTCHAR Lcaron
ENCODING 317
SWIDTH 537 0
DWIDTH 10 0
BBX 10 17 0 0
BITMAP
0400001000
085006A000
00B2770000
002C500000
0000000000
1200000000
7B00000000
6C00000000
5D00000000
5D00000000
4E00000000
4E00000000
3F00000000
3F000016D6
3F1017D710
2F59E81000
1EC7100000
ENDCHAR
STARTCHAR Ldot
ENCODING 319
SWIDTH 537 0
DWIDTH 10 0
BBX 10 12 0 0
BITMAP
1200000000
7B00000000
6C00000000
5D00000000
5D00000000
4E00000000
4E00010000
3F00A60000
3F000016D6
3F1017D710
2F59E81000
1EC7100000
ENDCHAR
STARTCHAR ldot
ENCODING 320
SWIDTH 267 0
DWIDTH 5 0
BBX 5 16 0 0
BITMAP
210000
850000
660000
470000
380000
290000
1A0000
1B0000
0C0000
0C0000
0C0100
0D1E10
0E0000
1E0000
2E0000
180000
ENDCHAR
STARTCHAR Lslash
ENCODING 321
SWIDTH 537 0
DWIDTH 10 0
BBX 11 12 -1 0
BITMAP
012000000000
07B000000000
06C000000000
05D000000000
05D000000000
04E000100000
04E39EC00000
39FC83000000
37F000016D60
03F0017D7100
02F49E810000
01EC71000000
ENDCHAR
STARTCHAR lslash
ENCODING 322
SWIDTH 137 0
DWIDTH 2 0
BBX 7 16 -2 0
BITMAP
00210000
00850000
00660000
00470000
00380000
00290000
001A0000
001B0000
000C0000
000C0000
000D7B60
25AFA510
984E0000
000E0000
002E0000
00180000
ENDCHAR
STARTCHAR Nacute
ENCODING 323
SWIDTH 541 0
DWIDTH 10 0
BBX 10 15 0 0
BITMAP
0001C20000
000B900900
0004000C40
4300000960
6E30000870
5FD1000770
3D9A000670
1D0B700680
0E01D30680
0D103D1680
0B3006A690
0950009C90
0870000CC0
06800005F1
0470000010
ENDCHAR
STARTCHAR nacute
ENCODING 324
SWIDTH 483 0
DWIDTH 9 0
BBX 8 13 0 0
BITMAP
00009600
0007C100
21031530
7600BEE1
6906D167
5B0D504A
4C2E003C
3E69002E
2FA4001F
1FE1000F
0FC0000E
0D90000D
0B500006
ENDCHAR
STARTCHAR Ncommaaccent
ENCODING 325
SWIDTH 541 0
DWIDTH 10 0
BBX 10 20 0 -6
BITMAP
0000000900
0000000C40
4300000960
6E30000870
5FD1000770
3D9A000670
1D0B700680
0E01D30680
0D103D1680
0B3006A690
0950009C90
0870000CC0
06800005F1
0470000010
0000000000
0000210000
0000D50000
0000B50000
0000B20000
0000800000
ENDCHAR
STARTCHAR ncommaaccent
ENCODING 326
SWIDTH 483 0
DWIDTH 9 0
BBX 8 17 0 -6
BITMAP
21000530
7600BEE1
6906D167
5B0D504A
4C2E003C
3E69002E
2FA4001F
1FE1000F
0FC0000E
0D90000D
0B500006
00000000
00002000
0006D000
0004D000
0004A000
00034000
ENDCHAR
STARTCHAR Ncaron
ENCODING 327
SWIDTH 541 0
DWIDTH 10 0
BBX 10 17 0 0
BITMAP
0230000100
00B100A600
002B1A3000
0005B20900
0000000C40
4300000960
6E30000870
5FD1000770
3D9A000670
1D0B700680
0E01D30680
0D103D1680
0B3006A690
0950009C90
0870000CC0
06800005F1
0470000010
ENDCHAR
STARTCHAR ncaron
ENCODING 328
SWIDTH 483 0
DWIDTH 9 0
BBX 8 15 0 0
BITMAP
03100010
03A002B2
00673A10
00099000
21000530
7600BEE1
6906D167
5B0D504A
4C2E003C
3E69002E
2FA4001F
1FE1000F
0FC0000E
0D90000D
0B500006
ENDCHAR
STARTCHAR napostrophe
ENCODING 329
SWIDTH 483 0
DWIDTH 9 0
BBX 8 16 0 0
BITMAP
00210000
00C60000
00B60000
00B30000
00800000
21000530
7600BEE1
6906D167
5B0D504A
4C2E003C
3E69002E
2FA4001F
1FE1000F
0FC0000E
0D90000D
0B500006
ENDCHAR
STARTCHAR Omacron
ENCODING 332
SWIDTH 382 0
DWIDTH 7 0
BBX 8 15 0 0
BITMAP
00002453
09CCBA95
00001000
004EF600
02D53D30
08700870
0E200690
3C000590
69000790
86000970
A4000C40
B3002E00
95008800
4C47D100
08EA2000
ENDCHAR
STARTCHAR omacron
ENCODING 333
SWIDTH 266 0
DWIDTH 5 0
BBX 7 14 -1 0
BITMAP
00024530
8CCBA960
00000000
00000000
008C3000
00E7B000
03908400
06606600
09506700
0A508700
0A50A500
0951E100
08898000
04E90000
ENDCHAR
STARTCHAR Obreve
ENCODING 334
SWIDTH 382 0
DWIDTH 7 0
BBX 7 16 0 0
BITMAP
00000200
08608A00
01BEC100
00031000
004EF600
02D53D30
08700870
0E200690
3C000590
69000790
86000970
A4000C40
B3002E00
95008800
4C47D100
08EA2000
ENDCHAR
STARTCHAR obreve
ENCODING 335
SWIDTH 266 0
DWIDTH 5 0
BBX 5 14 0 0
BITMAP
000030
6806B0
0AED20
003000
08C300
0E7B00
390840
660660
950670
A50870
A50A50
951E10
889800
4E9000
ENDCHAR
STARTCHAR Ohungarumlaut
ENCODING 336
SWIDTH 382 0
DWIDTH 7 0
BBX 7 16 0 0
BITMAP
0001B480
0009AAB0
00030900
00001000
004EF600
02D53D30
08700870
0E200690
3C000590
69000790
86000970
A4000C40
B3002E00
95008800
4C47D100
08EA2000
ENDCHAR
STARTCHAR ohungarumlaut
ENCODING 337
SWIDTH 266 0
DWIDTH 5 0
BBX 5 13 0 0
BITMAP
04C350
1E6E40
135500
08C300
0E7B00
390840
660660
950670
A50870
A50A50
951E10
889800
4E9000
ENDCHAR
STARTCHAR OE
ENCODING 338
SWIDTH 732 0
DWIDTH 13 0
BBX 13 13 0 0
BITMAP
00011520059600
004EEE87DA2000
02D53EFA300000
08700890000000
0E200690001100
3C0005A005B100
690007B3B81000
860009FB200000
A4000CF1000020
B3002FF0003C70
950089F006C300
4C47C2F6B80000
08EA21FA200000
ENDCHAR
STARTCHAR oe
ENCODING 339
SWIDTH 628 0
DWIDTH 11 0
BBX 12 10 0 0
BITMAP
08C3005A8100
0E7B06E59A00
39085E41B900
6606CD7C6000
9506FF810000
A508F60000A3
A50AE40007C0
951E94004D20
88995827C200
4E9009B70000
ENDCHAR
STARTCHAR Racute
ENCODING 340
SWIDTH 503 0
DWIDTH 9 0
BBX 9 17 0 0
BITMAP
00000B4000
00009B0000
1200400000
4D049CA600
4EBA534D80
4E40000B40
4C0002B500
4B007B2000
4A6C600000
4FB2000000
4F70000000
4BCD600000
4804BD6000
480004BD60
4800000370
4800000000
3600000000
ENDCHAR
STARTCHAR racute
ENCODING 341
SWIDTH 396 0
DWIDTH 7 0
BBX 7 13 0 0
BITMAP
0003D000
001D6000
00040000
00001200
7507FE80
683E3000
4A880000
1CA50000
0DB30000
0CD20000
09F10000
07E00000
04C00000
ENDCHAR
STARTCHAR Rcommaaccent
ENCODING 342
SWIDTH 503 0
DWIDTH 9 0
BBX 9 21 0 -6
BITMAP
1200000000
4D049CA600
4EBA534D80
4E40000B40
4C0002B500
4B007B2000
4A6C600000
4FB2000000
4F70000000
4BCD600000
4804BD6000
480004BD60
4800000370
4800000000
3600000000
0000000000
0000200000
0003F10000
0001F00000
0001C00000
0001700000
ENDCHAR
STARTCHAR rcommaaccent
ENCODING 343
SWIDTH 396 0
DWIDTH 7 0
BBX 7 16 0 -6
BITMAP
00001200
7507FE80
683E3000
4A880000
1CA50000
0DB30000
0CD20000
09F10000
07E00000
04C00000
00000000
00030000
002F1000
000F1000
000D0000
00070000
ENDCHAR
STARTCHAR Rcaron
ENCODING 344
SWIDTH 503 0
DWIDTH 9 0
BBX 9 19 0 0
BITMAP
0040000100
0093007800
001B286000
0003C40000
1200000000
4D049CA600
4EBA534D80
4E40000B40
4C0002B500
4B007B2000
4A6C600000
4FB2000000
4F70000000
4BCD600000
4804BD6000
480004BD60
4800000370
4800000000
3600000000
ENDCHAR
STARTCHAR rcaron
ENCODING 345
SWIDTH 396 0
DWIDTH 7 0
BBX 7 15 0 0
BITMAP
22000010
1B101A50
03A1A300
006B1000
00000000
00001200
7507FE80
683E3000
4A880000
1CA50000
0DB30000
0CD20000
09F10000
07E00000
04C00000
ENDCHAR
STARTCHAR Sacute
ENCODING 346
SWIDTH 541 0
DWIDTH 10 0
BBX 10 16 0 0
BITMAP
00001C1000
0000C80000
0000401000
00018CF500
004B404000
04B1000000
1D10000000
8700000000
B300000000
8800000000
08B8643100
0002579BB1
00000001D3
0000017D60
0027BC7100
0077200000
ENDCHAR
STARTCHAR sacute
ENCODING 347
SWIDTH 366 0
DWIDTH 7 0
BBX 7 14 0 -1
BITMAP
0005A000
003E3000
00220000
00001000
005CE400
08900000
3D000000
87000000
8959ED10
2BA53B50
00004D10
0006E300
01AD3000
00510000
ENDCHAR
STARTCHAR Scircumflex
ENCODING 348
SWIDTH 541 0
DWIDTH 10 0
BBX 10 19 0 0
BITMAP
0000740000
0002CB3000
000A31C200
003A003C20
00A2000530
0000001000
00018CF500
004B404000
04B1000000
1D10000000
8700000000
B300000000
8800000000
08B8643100
0002579BB1
00000001D3
0000017D60
0027BC7100
0077200000
ENDCHAR
STARTCHAR scircumflex
ENCODING 349
SWIDTH 366 0
DWIDTH 7 0
BBX 7 16 0 -1
BITMAP
00470000
00CA6000
0670B400
1C001C40
75000350
00001000
005CE400
08900000
3D000000
87000000
8959ED10
2BA53B50
00004D10
0006E300
01AD3000
00510000
ENDCHAR
STARTCHAR Scedilla
ENCODING 350
SWIDTH 541 0
DWIDTH 10 0
BBX 10 19 0 -5
BITMAP
0000001000
00018CF500
004B404000
04B1000000
1D10000000
8700000000
B300000000
8800000000
08B8643100
0002579BB1
00000001D3
0000017D60
0027BDE100
007723A000
000002F810
0000006CD3
00000000AC
0000017BF9
0000016520
ENDCHAR
STARTCHAR scedilla
ENCODING 351
SWIDTH 366 0
DWIDTH 7 0
BBX 7 16 0 -6
BITMAP
00001000
005CE400
08900000
3D000000
87000000
8959ED10
2BA53B50
00004D10
0006E300
01AD3000
00A70000
006C3000
001AE900
00002D80
00159F80
00397400
ENDCHAR
STARTCHAR Scaron
ENCODING 352
SWIDTH 541 0
DWIDTH 10 0
BBX 10 17 0 0
BITMAP
0140000100
0093008800
001B195000
0003C31000
00018CF500
004B404000
04B1000000
1D10000000
8700000000
B300000000
8800000000
08B8643100
0002579BB1
00000001D3
0000017D60
0027BC7100
0077200000
ENDCHAR
STARTCHAR scaron
ENCODING 353
SWIDTH 366 0
DWIDTH 7 0
BBX 7 15 0 -1
BITMAP
41000100
39002B20
0773A100
00A80000
00001000
005CE400
08900000
3D000000
87000000
8959ED10
2BA53B50
00004D10
0006E300
01AD3000
00510000
ENDCHAR
STARTCHAR Tcommaaccent
ENCODING 354
SWIDTH 595 0
DWIDTH 11 0
BBX 13 19 0 -6
BITMAP
00000573568940
268ACEEA985200
797315C0000000
000003C0000000
000001D0000000
000000E0000000
000000D1000000
000000C3000000
000000A5000000
00000097000000
00000078000000
0000005A000000
0000002B000000
00000000000000
00000002000000
0000000E400000
0000000C400000
0000000C100000
00000008000000
ENDCHAR
STARTCHAR tcommaaccent
ENCODING 355
SWIDTH 268 0
DWIDTH 5 0
BBX 6 20 -1 -6
BITMAP
008100
00D200
00D100
00D000
00E8BC
2AFC60
8BF000
00F000
00E100
00D200
00D200
00C300
00B300
00A400
003100
000200
004E00
002E00
002B00
002600
ENDCHAR
STARTCHAR Tcaron
ENCODING 356
SWIDTH 595 0
DWIDTH 11 0
BBX 13 18 0 0
BITMAP
00004000010000
00008400790000
00000B28600000
000002C4000000
00000000000000
00000573568940
268ACEEA985200
797315C0000000
000003C0000000
000001D0000000
000000E0000000
000000D1000000
000000C3000000
000000A5000000
00000097000000
00000078000000
0000005A000000
0000002B000000
ENDCHAR
STARTCHAR Tbar
ENCODING 358
SWIDTH 595 0
DWIDTH 11 0
BBX 13 13 0 0
BITMAP
00000573568940
268ACEEA985200
797315B0000000
000003C0000000
000679EDE50000
000553E1000000
000000D1000000
000000C3000000
000000A5000000
00000097000000
00000078000000
0000005A000000
0000002B000000
ENDCHAR
STARTCHAR Utilde
ENCODING 360
SWIDTH 450 0
DWIDTH 8 0
BBX 8 17 0 -2
BITMAP
04BC4035
0E36C2E6
0500AF80
00000010
46000087
7A0000B8
6A0000D7
6A0001F6
5A0003F6
5A0006F5
4A000AD5
4A000D85
2B006867
0D54C148
04BA203A
0000001B
0000000A
ENDCHAR
STARTCHAR utilde
ENCODING 361
SWIDTH 387 0
DWIDTH 7 0
BBX 7 14 0 -1
BITMAP
3BC50360
C44D2D80
5008F900
00000000
45001700
58002C00
58003C00
59003C00
5A005C00
4B00AC00
2C03FD00
0D2C9D10
07F90B40
00100220
ENDCHAR
STARTCHAR Umacron
ENCODING 362
SWIDTH 450 0
DWIDTH 8 0
BBX 8 16 0 -2
BITMAP
00002451
1BCCBA92
00000010
46000087
7A0000B8
6A0000D7
6A0001F6
5A0003F6
5A0006F5
4A000AD5
4A000D85
2B006867
0D54C148
04BA203A
0000001B
0000000A
ENDCHAR
STARTCHAR umacron
ENCODING 363
SWIDTH 387 0
DWIDTH 7 0
BBX 7 15 0 -1
BITMAP
00013540
7CCCA960
00000000
00000000
00000000
45001700
58002C00
58003C00
59003C00
5A005C00
4B00AC00
2C03FD00
0D2C9D10
07F90B40
00100220
ENDCHAR
STARTCHAR Ubreve
ENCODING 364
SWIDTH 450 0
DWIDTH 8 0
BBX 8 16 0 -2
BITMAP
00000120
00B31B50
002DE910
46012087
7A0000B8
6A0000D7
6A0001F6
5A0003F6
5A0006F5
4A000AD5
4A000D85
2B006867
0D54C148
04BA203A
0000001B
0000000A
ENDCHAR
STARTCHAR ubreve
ENCODING 365
SWIDTH 387 0
DWIDTH 7 0
BBX 7 15 0 -1
BITMAP
00000300
05905C00
009EE300
00031000
00000000
45001700
58002C00
58003C00
59003C00
5A005C00
4B00AC00
2C03FD00
0D2C9D10
07F90B40
00100220
ENDCHAR
STARTCHAR Uring
ENCODING 366
SWIDTH 450 0
DWIDTH 8 0
BBX 8 17 0 -2
BITMAP
00012000
00ACCA00
02D01E00
00ABA710
46000087
7A0000B8
6A0000D7
6A0001F6
5A0003F6
5A0006F5
4A000AD5
4A000D85
2B006867
0D54C148
04BA203A
0000001B
0000000A
ENDCHAR
STARTCHAR uring
ENCODING 367
SWIDTH 387 0
DWIDTH 7 0
BBX 7 14 0 -1
BITMAP
00011000
03DBE400
08707800
03CAB300
45001700
58002C00
58003C00
59003C00
5A005C00
4B00AC00
2C03FD00
0D2C9D10
07F90B40
00100220
ENDCHAR
STARTCHAR Uhungarumlaut
ENCODING 368
SWIDTH 450 0
DWIDTH 8 0
BBX 8 17 0 -2
BITMAP
000B4800
009A9B00
00309100
00000010
46000087
7A0000B8
6A0000D7
6A0001F6
5A0003F6
5A0006F5
4A000AD5
4A000D85
2B006867
0D54C148
04BA203A
0000001B
0000000A
ENDCHAR
STARTCHAR uhungarumlaut
ENCODING 369
SWIDTH 387 0
DWIDTH 7 0
BBX 7 13 0 -1
BITMAP
00A67100
07B8C000
03081000
45001700
58002C00
58003C00
59003C00
5A005C00
4B00AC00
2C03FD00
0D2C9D10
07F90B40
00100220
ENDCHAR
STARTCHAR Uogonek
ENCODING 370
SWIDTH 450 0
DWIDTH 8 0
BBX 10 17 0 -5
BITMAP
0000001000
4600008700
7A0000B800
6A0000D700
6A0001F600
5A0003F600
5A0006F500
4A000AD500
4A000D8500
2B00686700
0D54C14800
04BA203A00
0000009B00
000007BA00
00000C3000
00000B5383
000003CD91
ENDCHAR
STARTCHAR uogonek
ENCODING 371
SWIDTH 387 0
DWIDTH 7 0
BBX 8 14 0 -5
BITMAP
45001700
58002C00
58003C00
59003C00
5A005C00
4B00AC00
2C03FD00
0D2C9D10
07F91D40
0010C720
0003C000
0004B024
0000CDF8
00000210
ENDCHAR
STARTCHAR Wcircumflex
ENCODING 372
SWIDTH 878 0
DWIDTH 16 0
BBX 16 20 0 -1
BITMAP
0000001A10000000
0000007AB0000000
000001C059000000
0000094008900000
00001A0000800000
0000000000000030
00000000000000D1
01000000200002C0
79000006E1000690
4E000009E5000950
0C40000C89000D10
079000492E002C00
03D000840C405900
00E300C006909500
00B803A001D1C100
007C08600078C000
003F2D10001EA000
000DBC0000075000
0005F60000000000
0000300000000000
ENDCHAR
STARTCHAR wcircumflex
ENCODING 373
SWIDTH 566 0
DWIDTH 10 0
BBX 10 17 0 0
BITMAP
0000920000
0005BB1000
000C13B100
0067006B10
00B0000710
0000000000
0000000000
0000200010
6600F50094
3D02ED0095
0C34B87095
0795B1D295
01E7A05A96
00AE900BC7
005F8003F7
000E700078
0007500000
ENDCHAR
STARTCHAR Ycircumflex
ENCODING 374
SWIDTH 483 0
DWIDTH 9 0
BBX 9 20 0 0
BITMAP
0005600000
001CB40000
00851C3000
02B002C300
0830004400
0000000000
0000000730
0000000B10
4000001C00
7700005800
1D4000A300
04E201E000
006D179000
0008DD4000
0000AD0000
0000980000
0000C30000
0002D00000
0007800000
0008300000
ENDCHAR
STARTCHAR ycircumflex
ENCODING 375
SWIDTH 363 0
DWIDTH 7 0
BBX 7 24 0 -7
BITMAP
00750000
02CB3000
0A41C200
3A003C20
A2000530
00000000
00000000
00000300
10000A20
89000B20
2E300C20
06B00D20
00C60E10
003E2F10
0008DF10
0001DF00
00004E00
00001D00
00002C00
00003A00
00005900
00006800
00007700
00006400
ENDCHAR
STARTCHAR Ydieresis
ENCODING 376
SWIDTH 483 0
DWIDTH 9 0
BBX 9 14 0 0
BITMAP
0015051730
00481A1B10
4000001C00
7700005800
1D4000A300
04E201E000
006D179000
0008DD4000
0000AD0000
0000980000
0000C30000
0002D00000
0007800000
0008300000
ENDCHAR
STARTCHAR Zacute
ENCODING 377
SWIDTH 670 0
DWIDTH 12 0
BBX 12 16 0 0
BITMAP
000005A00000
00002E400000
000013000000
144444433300
2888889AEE00
00000003E400
0000001D7000
000000BA0000
000008C10000
00004E200000
0002E4000000
000C70000000
009A00000000
06C100000000
3F7555555675
7FEDDCCCBA95
ENDCHAR
STARTCHAR zacute
ENCODING 378
SWIDTH 618 0
DWIDTH 11 0
BBX 12 14 0 -1
BITMAP
000003C00000
00001D600000
000004000000
000000000000
00005AE10000
159DA8E00000
39510B900000
00003E200000
0000A6000000
0002D0000000
000860000361
000D669CFEC4
002FDA852000
000100000000
ENDCHAR
STARTCHAR Zdotaccent
ENCODING 379
SWIDTH 670 0
DWIDTH 12 0
BBX 12 14 0 0
BITMAP
000008800000
144445433300
2888889AEE00
00000003E400
0000001D7000
000000BA0000
000008C10000
00004E200000
0002E4000000
000C70000000
009A00000000
06C100000000
3F7555555675
7FEDDCCCBA95
ENDCHAR
STARTCHAR zdotaccent
ENCODING 380
SWIDTH 618 0
DWIDTH 11 0
BBX 12 12 0 -1
BITMAP
00000D300000
000002000000
00005AE10000
159DA8E00000
39510B900000
00003E200000
0000A6000000
0002D0000000
000860000361
000D669CFEC4
002FDA852000
000100000000
ENDCHAR
STARTCHAR Zcaron
ENCODING 381
SWIDTH 670 0
DWIDTH 12 0
BBX 12 17 0 0
BITMAP
000310001000
0002A002B300
0000683A1000
000009900000
144444433300
2888889AEE00
00000003E400
0000001D7000
000000BA0000
000008C10000
00004E200000
0002E4000000
000C70000000
009A00000000
06C100000000
3F7555555675
7FEDDCCCBA95
ENDCHAR
STARTCHAR zcaron
ENCODING 382
SWIDTH 618 0
DWIDTH 11 0
BBX 12 15 0 -1
BITMAP
004000010000
0066005B0000
000A36800000
0001C6000000
000000000000
00005AE10000
159DA8E00000
39510B900000
00003E200000
0000A6000000
0002D0000000
000860000361
000D669CFEC4
002FDA852000
000100000000
ENDCHAR
STARTCHAR florin
ENCODING 402
SWIDTH 345 0
DWIDTH 6 0
BBX 7 21 -1 -5
BITMAP
0007F600
000D8D00
001F1510
003E0000
004D0000
005C0000
005B0030
005A6DD0
008E9510
07BA0000
001B0000
001C0000
001D0000
001E0000
001F0000
001F1000
000F2000
000F3000
000F3000
289F1000
15840000
ENDCHAR
STARTCHAR AEacute
ENCODING 508
SWIDTH 708 0
DWIDTH 13 0
BBX 13 17 0 0
BITMAP
00000A50000000
00008B00000000
00004000000000
01500000001100
04F21B016BA200
06F70E9EA20000
088C0CA2000000
09593A30000000
0B448940005000
0D30D8505A2000
0E10BCAB600000
1F00AFD1000000
2F7BBFB0000540
3E600DB001A910
590009A05C4000
670007DC910000
43000383000000
ENDCHAR
STARTCHAR aeacute
ENCODING 509
SWIDTH 705 0
DWIDTH 13 0
BBX 13 13 0 0
BITMAP
0000005A000000
000003E3000000
00000130100000
0006A31AED4000
006EC88B16D000
02E389E24D5000
0990BEECA20000
1E22FFD3000210
6A0ABF60001D40
B44D0E5000A900
D1D50C5008A000
DC900AC7B80000
69000656200000
ENDCHAR
STARTCHAR Oslashacute
ENCODING 510
SWIDTH 382 0
DWIDTH 7 0
BBX 7 18 0 -2
BITMAP
0001B300
000AA000
00040000
00011700
004EFA00
02D59E30
0870C970
0E23A690
3C075590
690C1790
862B0970
A4660C40
B3B22E00
96C08800
4E97D100
0CFA2000
0C000000
03000000
ENDCHAR
STARTCHAR oslashacute
ENCODING 511
SWIDTH 266 0
DWIDTH 5 0
BBX 5 16 0 -2
BITMAP
004B00
02E400
013000
000050
08C880
0E7E20
391F40
666C60
95B770
A7A870
AC5A50
9E1E10
8A9800
9E9000
C00000
400000
ENDCHAR
STARTCHAR Scommaaccent
ENCODING 536
SWIDTH 541 0
DWIDTH 10 0
BBX 10 20 0 -6
BITMAP
0000001000
00018CF500
004B404000
04B1000000
1D10000000
8700000000
B300000000
8800000000
08B8643100
0002579BB1
00000001D3
0000017D60
0027BC7100
0077200000
0000000000
0000210000
0000D50000
0000B50000
0000B20000
0000800000
ENDCHAR
STARTCHAR scommaaccent
ENCODING 537
SWIDTH 366 0
DWIDTH 7 0
BBX 7 16 0 -6
BITMAP
00001000
005CE400
08900000
3D000000
87000000
8959ED10
2BA53B50
00004D10
0006E300
01AD3000
00510000
00020000
006C0000
004C0000
00490000
00440000
ENDCHAR
STARTCHAR circumflex
ENCODING 710
SWIDTH 390 0
DWIDTH 7 0
BBX 7 5 0 12
BITMAP
00380000
00CA7000
0580A500
0C101C50
66000260
ENDCHAR
STARTCHAR caron
ENCODING 711
SWIDTH 390 0
DWIDTH 7 0
BBX 6 4 1 11
BITMAP
400001
840069
0B2770
02C400
ENDCHAR
STARTCHAR breve
ENCODING 728
SWIDTH 390 0
DWIDTH 7 0
BBX 5 4 1 10
BITMAP
000020
A40A70
1DEB10
013000
ENDCHAR
STARTCHAR dotaccent
ENCODING 729
SWIDTH 128 0
DWIDTH 2 0
BBX 2 2 0 9
BITMAP
79
11
ENDCHAR
STARTCHAR ring
ENCODING 730
SWIDTH 266 0
DWIDTH 5 0
BBX 5 4 0 9
BITMAP
002100
4DBE30
960870
4CAB20
ENDCHAR
STARTCHAR ogonek
ENCODING 731
SWIDTH 366 0
DWIDTH 7 0
BBX 5 6 1 -5
BITMAP
003000
099000
2D0000
4A0020
1DADB0
026400
ENDCHAR
STARTCHAR tilde
ENCODING 732
SWIDTH 458 0
DWIDTH 8 0
BBX 8 3 0 10
BITMAP
06CB1053
3D1984F3
2401CE50
ENDCHAR
STARTCHAR hungarumlaut
ENCODING 733
SWIDTH 239 0
DWIDTH 4 0
BBX 5 3 0 8
BITMAP
0B5810
8B9B00
309100
ENDCHAR
STARTCHAR Wgrave
ENCODING 7808
SWIDTH 878 0
DWIDTH 16 0
BBX 16 19 0 -1
BITMAP
0000000200000000
0000000C40000000
00000004C0000000
0000000030000000
0000000000000030
00000000000000D1
01000000200002C0
79000006E1000690
4E000009E5000950
0C40000C89000D10
079000492E002C00
03D000840C405900
00E300C006909500
00B803A001D1C100
007C08600078C000
003F2D10001EA000
000DBC0000075000
0005F60000000000
0000300000000000
ENDCHAR
STARTCHAR wgrave
ENCODING 7809
SWIDTH 566 0
DWIDTH 10 0
BBX 10 14 0 0
BITMAP
0000200000
0001D10000
0000880000
0000020000
0000200010
6600F50094
3D02ED0095
0C34B87095
0795B1D295
01E7A05A96
00AE900BC7
005F8003F7
000E700078
0007500000
ENDCHAR
STARTCHAR Wacute
ENCODING 7810
SWIDTH 878 0
DWIDTH 16 0
BBX 16 17 0 -1
BITMAP
0000000960000000
0000007C10000000
0000003100000030
00000000000000D1
01000000200002C0
79000006E1000690
4E000009E5000950
0C40000C89000D10
079000492E002C00
03D000840C405900
00E300C006909500
00B803A001D1C100
007C08600078C000
003F2D10001EA000
000DBC0000075000
0005F60000000000
0000300000000000
ENDCHAR
STARTCHAR wacute
ENCODING 7811
SWIDTH 566 0
DWIDTH 10 0
BBX 10 13 0 0
BITMAP
0000087000
00006D1000
0000310000
0000200010
6600F50094
3D02ED0095
0C34B87095
0795B1D295
01E7A05A96
00AE900BC7
005F8003F7
000E700078
0007500000
ENDCHAR
STARTCHAR Wdieresis
ENCODING 7812
SWIDTH 878 0
DWIDTH 16 0
BBX 16 17 0 -1
BITMAP
0000003315000000
0000007548000000
0000000000000030
00000000000000D1
01000000200002C0
79000006E1000690
4E000009E5000950
0C40000C89000D10
079000492E002C00
03D000840C405900
00E300C006909500
00B803A001D1C100
007C08600078C000
003F2D10001EA000
000DBC0000075000
0005F60000000000
0000300000000000
ENDCHAR
STARTCHAR wdieresis
ENCODING 7813
SWIDTH 566 0
DWIDTH 10 0
BBX 10 14 0 0
BITMAP
0003415000
0006539000
0000000000
0000000000
0000200010
6600F50094
3D02ED0095
0C34B87095
0795B1D295
01E7A05A96
00AE900BC7
005F8003F7
000E700078
0007500000
ENDCHAR
STARTCHAR Ygrave
ENCODING 7922
SWIDTH 483 0
DWIDTH 9 0
BBX 9 18 0 0
BITMAP
0002000000
0009700000
0002D10000
0000200000
0000000730
0000000B10
4000001C00
7700005800
1D4000A300
04E201E000
006D179000
0008DD4000
0000AD0000
0000980000
0000C30000
0002D00000
0007800000
0008300000
ENDCHAR
STARTCHAR ygrave
ENCODING 7923
SWIDTH 363 0
DWIDTH 7 0
BBX 7 21 0 -7
BITMAP
00200000
00D20000
006B0000
00030000
00000300
10000A20
89000B20
2E300C20
06B00D20
00C60E10
003E2F10
0008DF10
0001DF00
00004E00
00001D00
00002C00
00003A00
00005900
00006800
00007700
00006400
ENDCHAR
STARTCHAR endash
ENCODING 8211
SWIDTH 399 0
DWIDTH 7 0
BBX 7 3 0 3
BITMAP
00005A90
148EB720
79510000
ENDCHAR
STARTCHAR emdash
ENCODING 8212
SWIDTH 549 0
DWIDTH 10 0
BBX 9 3 0 3
BITMAP
0000003660
1369CEC960
7974200000
ENDCHAR
STARTCHAR quoteleft
ENCODING 8216
SWIDTH 155 0
DWIDTH 3 0
BBX 2 6 0 6
BITMAP
11
6A
4C
3C
1B
07
ENDCHAR
STARTCHAR quoteright
ENCODING 8217
SWIDTH 155 0
DWIDTH 3 0
BBX 2 6 0 6
BITMAP
11
6A
4C
3C
1B
07
ENDCHAR
STARTCHAR quotesinglbase
ENCODING 8218
SWIDTH 155 0
DWIDTH 3 0
BBX 2 6 0 -1
BITMAP
3A
2E
1E
0D
0A
01
ENDCHAR
STARTCHAR quotedblleft
ENCODING 8220
SWIDTH 212 0
DWIDTH 4 0
BBX 4 6 0 9
BITMAP
1100
7672
6783
4883
3883
1821
ENDCHAR
STARTCHAR quotedblright
ENCODING 8221
SWIDTH 212 0
DWIDTH 4 0
BBX 4 6 0 9
BITMAP
1100
7672
6783
4883
3883
1821
ENDCHAR
STARTCHAR quotedblbase
ENCODING 8222
SWIDTH 212 0
DWIDTH 4 0
BBX 4 5 0 0
BITMAP
6662
5773
4873
2973
0922
ENDCHAR
STARTCHAR dagger
ENCODING 8224
SWIDTH 268 0
DWIDTH 5 0
BBX 6 15 -1 -1
BITMAP
008100
00D200
00D100
00D000
00E8BC
2AFC60
8BF000
00F000
00E100
00D200
00D200
00C300
00B300
00A400
003100
ENDCHAR
STARTCHAR daggerdbl
ENCODING 8225
SWIDTH 326 0
DWIDTH 6 0
BBX 6 15 0 -1
BITMAP
009000
00E000
00E000
00D000
00E8CB
3BFB50
9CD013
04FCE9
7DE300
11E000
00F000
00E100
00D100
00C200
003000
ENDCHAR
STARTCHAR bullet
ENCODING 8226
SWIDTH 189 0
DWIDTH 3 0
BBX 3 3 0 4
BITMAP
0550
3FD0
1C60
ENDCHAR
STARTCHAR ellipsis
ENCODING 8230
SWIDTH 387 0
DWIDTH 7 0
BBX 7 2 0 0
BITMAP
01010100
6A2E1C50
ENDCHAR
STARTCHAR guilsinglleft
ENCODING 8249
SWIDTH 409 0
DWIDTH 7 0
BBX 8 10 0 2
BITMAP
00000031
000005D1
00007E30
000AC200
01C90000
1D600000
0BB20000
007E8100
0002AE70
00000560
ENDCHAR
STARTCHAR guilsinglright
ENCODING 8250
SWIDTH 450 0
DWIDTH 8 0
BBX 7 10 0 2
BITMAP
1B300000
07E91000
0018E700
000029C0
000001D0
00001C40
0003D600
006E5000
08D30000
1A100000
ENDCHAR
STARTCHAR fraction
ENCODING 8260
SWIDTH 306 0
DWIDTH 6 0
BBX 5 15 0 -2
BITMAP
000070
0002B0
000760
000B20
001C00
005700
00A300
00C000
048000
094000
0C0000
390000
750000
B10000
400000
ENDCHAR
STARTCHAR Euro
ENCODING 8364
SWIDTH 589 0
DWIDTH 11 0
BBX 11 15 0 -1
BITMAP
000000100000
00000ADC0000
000088053000
0001C0000000
000770000000
000C20000000
014E79400000
5DDC62000000
007603620000
01ABCB700000
9CD400000300
00A400003E10
005A0027E400
0009EEEA2000
000002000000
ENDCHAR
STARTCHAR trademark
ENCODING 8482
SWIDTH 1278 0
DWIDTH 23 0
BBX 23 14 0 0
BITMAP
000000000007700000009000
00000573568DF7000005F000
268ACEEA98688D100009D100
797315C000057790000BA200
000003C0000471D200488300
000001D00003907800937400
000000E00002A01D10C06600
000000D10002C00794805700
000000C30001D001DB303900
000000A50001F0007B002B00
000000970001F10001001D00
000000780001F20000000E10
0000005A0000F30000000D40
0000002B0000D30000000A40
ENDCHAR
STARTCHAR minus
ENCODING 8722
SWIDTH 358 0
DWIDTH 6 0
BBX 6 2 0 4
BITMAP
178ACC
154321
ENDCHAR
STARTCHAR commaaccent
ENCODING 63171
SWIDTH 450 0
DWIDTH 8 0
BBX 2 5 3 -6
BITMAP
20
D5
C5
C2
80
ENDCHAR
STARTCHAR fi
ENCODING 64257
SWIDTH 409 0
DWIDTH 7 0
BBX 7 17 0 -1
BITMAP
007F6000
00D8D000
01F15200
03E00910
04D00000
05C00110
05B00960
05A6DF60
08EA7A60
7BA00960
02B00960
02D00960
01F00860
00F10860
00E10760
00C10760
00000110
ENDCHAR
STARTCHAR fl
ENCODING 64258
SWIDTH 416 0
DWIDTH 8 0
BBX 7 16 0 0
BITMAP
007F6000
00D8D920
01F15930
03E00740
04D00650
05C00560
05B00670
05A6DE80
08EA7490
7BA002A0
02B002A0
02D002B0
01F002B0
00F102C0
00E103C0
00C104C0
ENDCHAR
STARTCHAR .notdef
ENCODING -1
SWIDTH 450 0
DWIDTH 8 0
BBX 1 1 0 0
BITMAP
00
ENDCHAR
STARTCHAR .null
ENCODING -1
SWIDTH 0 0
DWIDTH 0 0
BBX 1 1 0 0
BITMAP
00
ENDCHAR
STARTCHAR nonmarkingreturn
ENCODING -1
SWIDTH 450 0
DWIDTH 8 0
BBX 1 1 0 0
BITMAP
00
ENDCHAR
ENDFONT
